<svg width="1615" height="246" viewBox="0 0 1615 246" fill="none" xmlns="http://www.w3.org/2000/svg">
<path d="M0 117.3L53.8667 101.3C107.733 85.3 215.467 53.3 323.2 32C430.933 10.3 538.667 0.3 646.4 0C754.133 0.3 861.867 10.3 969.6 26.6C1077.33 42.3 1185.07 64.3 1292.8 74.6C1400.53 85.3 1508.27 85.3 1562.13 85.3H1616V245.3H1562.13C1508.27 245.3 1400.53 245.3 1292.8 245.3C1185.07 245.3 1077.33 245.3 969.6 245.3C861.867 245.3 754.133 245.3 646.4 245.3C538.667 245.3 430.933 245.3 323.2 245.3C215.467 245.3 107.733 245.3 53.8667 245.3H0V117.3Z" fill="#F3F4F5"/>
</svg>
