<svg width="122" height="150" viewBox="0 0 122 150" fill="none" xmlns="http://www.w3.org/2000/svg">
<g id="padaras3">
<path id="Vector" d="M43.2352 111.616C44.7754 111.028 44.5038 106.573 42.6286 101.667C40.7534 96.7609 37.9847 93.2609 36.4445 93.8496C34.9043 94.4383 35.1759 98.8927 37.0511 103.799C38.9263 108.705 41.695 112.205 43.2352 111.616Z" fill="#2F2E41"/>
<path id="Vector_2" d="M56.4919 139.845C66.8608 138.162 73.9023 128.393 72.2197 118.024C70.5371 107.655 60.7674 100.613 50.3985 102.296C40.0297 103.979 32.9881 113.748 34.6707 124.117C36.3533 134.486 46.123 141.528 56.4919 139.845Z" fill="#2F2E41"/>
<path id="Vector_3" d="M62.1124 135.998H56.3345L57.4651 148.396L62.1225 147.131L62.1124 135.998Z" fill="#2F2E41"/>
<path id="Vector_4" d="M49.5157 136.03H43.7373L44.8679 148.428L49.3152 147.131L49.5157 136.03Z" fill="#2F2E41"/>
<path id="Vector_5" d="M44.7039 149.011C47.3562 148.817 49.4474 147.853 49.3747 146.859C49.3019 145.864 47.0929 145.215 44.4406 145.409C41.7883 145.603 39.6971 146.566 39.7699 147.561C39.8426 148.555 42.0516 149.204 44.7039 149.011Z" fill="#2F2E41"/>
<path id="Vector_6" d="M52.9634 122.756C56.5536 122.756 59.464 119.845 59.464 116.255C59.464 112.665 56.5536 109.755 52.9634 109.755C49.3733 109.755 46.4629 112.665 46.4629 116.255C46.4629 119.845 49.3733 122.756 52.9634 122.756Z" fill="white"/>
<path id="Vector_7" d="M52.9637 118.422C54.1605 118.422 55.1306 117.452 55.1306 116.255C55.1306 115.059 54.1605 114.088 52.9637 114.088C51.767 114.088 50.7969 115.059 50.7969 116.255C50.7969 117.452 51.767 118.422 52.9637 118.422Z" fill="#3F3D56"/>
<path id="Vector_8" d="M75.9447 109.602C79.0652 105.378 80.5197 101.159 79.1934 100.179C77.8671 99.1995 74.2623 101.83 71.1418 106.055C68.0214 110.28 66.5669 114.499 67.8932 115.478C69.2194 116.458 72.8243 113.827 75.9447 109.602Z" fill="#2F2E41"/>
<path id="Vector_9" d="M44.165 130.878C44.165 129.343 48.1155 126.314 52.4991 126.314C56.8827 126.314 60.9927 130.633 60.9927 132.167C60.9927 133.702 56.8827 131.87 52.4991 131.87C48.1155 131.87 44.165 132.412 44.165 130.878Z" fill="white"/>
<path id="Vector_10" d="M106.78 105.353L2.66651 90.9194C1.85481 90.8058 1.12127 90.375 0.626795 89.7214C0.13232 89.0677 -0.0827421 88.2447 0.0288176 87.4327L11.733 3.00427C11.8465 2.19255 12.2773 1.459 12.931 0.964515C13.5846 0.470033 14.4077 0.255008 15.2197 0.366605L119.333 14.7998C120.145 14.9133 120.879 15.3441 121.373 15.9977C121.868 16.6514 122.083 17.4745 121.971 18.2864L110.267 102.715C110.153 103.527 109.723 104.26 109.069 104.755C108.415 105.249 107.592 105.464 106.78 105.353Z" fill="#6C63FF"/>
<path id="Vector_11" d="M69.4822 79.0035L16.3293 71.635C16.2626 71.6266 16.1968 71.6122 16.1328 71.5917L47.3082 31.5325C47.4992 31.2826 47.7531 31.0879 48.044 30.9682C48.3349 30.8486 48.6524 30.8083 48.964 30.8515C49.2756 30.8947 49.5701 31.0198 49.8175 31.2141C50.0649 31.4084 50.2563 31.6648 50.3721 31.9573L63.1925 63.5176L63.807 65.028L69.4822 79.0035Z" fill="white"/>
<path id="Vector_12" opacity="0.2" d="M69.4817 79.0033L51.334 76.4877L62.0366 64.7826L62.8073 63.9395L63.1924 63.5178L63.8067 65.0282L69.4817 79.0033Z" fill="black"/>
<path id="Vector_13" d="M99.0774 83.1063L53.1045 76.7331L63.807 65.028L64.5774 64.1847L78.5239 48.9305C78.7649 48.7013 79.0514 48.5254 79.3647 48.4142C79.6781 48.3029 80.0114 48.2588 80.3429 48.2847C80.6745 48.3107 80.9969 48.406 81.2892 48.5646C81.5814 48.7233 81.8371 48.9416 82.0395 49.2054C82.0905 49.2796 82.1367 49.357 82.1778 49.437L99.0774 83.1063Z" fill="white"/>
<path id="Vector_14" d="M70.1287 45.1318C74.519 45.1318 78.0781 41.5727 78.0781 37.1823C78.0781 32.7919 74.519 29.2328 70.1287 29.2328C65.7383 29.2328 62.1792 32.7919 62.1792 37.1823C62.1792 41.5727 65.7383 45.1318 70.1287 45.1318Z" fill="white"/>
<path id="Vector_15" d="M26.6196 8.19101L16.9956 6.85681L15.6614 16.4808L25.2854 17.815L26.6196 8.19101Z" fill="#3F3D56"/>
<path id="Vector_16" d="M71.8951 103.382C73.4309 96.5044 68.5216 89.5545 60.9299 87.8593C53.3382 86.1641 45.9389 90.3656 44.4031 97.2436C42.8673 104.122 47.8986 106.658 55.4903 108.353C63.082 110.049 70.3593 110.26 71.8951 103.382Z" fill="#F2F2F2"/>
<path id="Vector_17" d="M57.3753 148.98C60.0276 148.786 62.1188 147.823 62.046 146.828C61.9733 145.833 59.7643 145.184 57.112 145.378C54.4597 145.572 52.3685 146.536 52.4412 147.53C52.514 148.525 54.723 149.174 57.3753 148.98Z" fill="#2F2E41"/>
</g>
</svg>
