<svg width="588" height="442" viewBox="0 0 588 442" fill="none" xmlns="http://www.w3.org/2000/svg">
<path d="M485.042 325.619C488.606 322.68 483.905 311.094 474.542 299.741C465.18 288.388 454.7 281.567 451.136 284.506C447.572 287.445 452.273 299.032 461.636 310.385C470.999 321.738 481.478 328.559 485.042 325.619Z" fill="#2F2E41"/>
<path d="M523.017 410.852C552.068 406.138 571.798 378.765 567.083 349.714C562.369 320.662 534.996 300.933 505.945 305.647C476.893 310.362 457.164 337.735 461.878 366.786C466.593 395.838 493.965 415.567 523.017 410.852Z" fill="#2F2E41"/>
<path d="M538.765 400.073H522.575V429.079H538.765V400.073Z" fill="#2F2E41"/>
<path d="M506.386 400.073H490.196V429.079H506.386V400.073Z" fill="#2F2E41"/>
<path d="M525.274 434.475C532.725 434.475 538.765 432.21 538.765 429.416C538.765 426.622 532.725 424.357 525.274 424.357C517.822 424.357 511.782 426.622 511.782 429.416C511.782 432.21 517.822 434.475 525.274 434.475Z" fill="#2F2E41"/>
<path d="M492.894 433.801C500.345 433.801 506.386 431.536 506.386 428.742C506.386 425.947 500.345 423.682 492.894 423.682C485.443 423.682 479.403 425.947 479.403 428.742C479.403 431.536 485.443 433.801 492.894 433.801Z" fill="#2F2E41"/>
<path d="M533.138 329.817C516.338 315.934 507 303.205 519.577 287.984C532.154 272.763 555.97 271.678 572.771 285.56C589.571 299.443 592.995 323.036 580.418 338.257C567.84 353.478 549.939 343.699 533.138 329.817Z" fill="#6C63FF"/>
<path d="M496.591 348.802C506.646 348.507 514.557 340.116 514.261 330.062C513.966 320.007 505.576 312.096 495.521 312.391C485.467 312.687 477.555 321.077 477.851 331.132C478.146 341.186 486.536 349.098 496.591 348.802Z" fill="white"/>
<path d="M489.655 332.157C493.008 332.157 495.726 329.439 495.726 326.086C495.726 322.733 493.008 320.015 489.655 320.015C486.302 320.015 483.583 322.733 483.583 326.086C483.583 329.439 486.302 332.157 489.655 332.157Z" fill="#3F3D56"/>
<path d="M468.526 345.598C464.838 349.286 462.231 361.243 467.418 366.431C472.606 371.619 487.853 366.1 491.541 362.412C495.229 358.724 485.962 358.263 480.774 353.075C475.586 347.888 472.214 341.909 468.526 345.598Z" fill="white"/>
<path d="M565.066 429.513C569.381 427.864 568.62 415.384 563.366 401.638C558.112 387.892 550.355 378.085 546.04 379.735C541.725 381.384 542.485 393.865 547.739 407.611C552.993 421.356 560.751 431.163 565.066 429.513Z" fill="#2F2E41"/>
<path d="M144.752 327.848C150.006 314.102 150.767 301.622 146.452 299.972C142.137 298.323 134.379 308.129 129.125 321.875C123.871 335.621 123.111 348.101 127.426 349.751C131.741 351.4 139.498 341.594 144.752 327.848Z" fill="#2F2E41"/>
<path d="M140.285 373.64C144.999 344.588 125.27 317.216 96.2185 312.501C67.167 307.787 39.7943 327.516 35.0799 356.567C30.3655 385.619 50.0946 412.992 79.1461 417.706C108.198 422.421 135.57 402.691 140.285 373.64Z" fill="#2F2E41"/>
<path d="M79.5877 406.927H63.3982V435.933H79.5877V406.927Z" fill="#2F2E41"/>
<path d="M111.967 406.927H95.7771V435.933H111.967V406.927Z" fill="#2F2E41"/>
<path d="M76.8895 441.329C84.3405 441.329 90.3808 439.064 90.3808 436.27C90.3808 433.476 84.3405 431.211 76.8895 431.211C69.4385 431.211 63.3982 433.476 63.3982 436.27C63.3982 439.064 69.4385 441.329 76.8895 441.329Z" fill="#2F2E41"/>
<path d="M109.268 440.655C116.719 440.655 122.76 438.39 122.76 435.596C122.76 432.802 116.719 430.536 109.268 430.536C101.817 430.536 95.7771 432.802 95.7771 435.596C95.7771 438.39 101.817 440.655 109.268 440.655Z" fill="#2F2E41"/>
<path d="M89.5666 369.818C99.6212 369.522 107.532 361.132 107.237 351.077C106.942 341.023 98.5512 333.111 88.4967 333.407C78.4421 333.702 70.5308 342.093 70.8263 352.147C71.1217 362.202 79.5121 370.113 89.5666 369.818Z" fill="white"/>
<path d="M89.0316 357.683C92.3845 357.683 95.1027 354.965 95.1027 351.612C95.1027 348.259 92.3845 345.541 89.0316 345.541C85.6786 345.541 82.9604 348.259 82.9604 351.612C82.9604 354.965 85.6786 357.683 89.0316 357.683Z" fill="#3F3D56"/>
<path d="M35.989 315.545C31.6861 296.274 45.4409 276.802 66.7114 272.053C87.9818 267.303 108.713 279.075 113.016 298.345C117.319 317.616 103.222 324.723 81.952 329.473C60.6815 334.222 40.2919 334.816 35.989 315.545Z" fill="#E6E6E6"/>
<path d="M51.7341 351.795C53.7138 347.621 44.54 339.125 31.2439 332.819C17.9477 326.513 5.56423 324.784 3.58454 328.958C1.60486 333.132 10.7786 341.628 24.0748 347.934C37.3709 354.24 49.7544 355.969 51.7341 351.795Z" fill="#2F2E41"/>
<path d="M61.5063 384.329C61.5063 389.545 74.9359 399.844 89.838 399.844C104.74 399.844 118.712 385.16 118.712 379.944C118.712 374.728 104.74 380.956 89.838 380.956C74.936 380.956 61.5063 379.113 61.5063 384.329Z" fill="white"/>
<path d="M119.523 103.784C140.247 103.784 157.046 86.9841 157.046 66.2606C157.046 45.5371 140.247 28.7374 119.523 28.7374C98.7997 28.7374 82 45.5371 82 66.2606C82 86.9841 98.7997 103.784 119.523 103.784Z" fill="#2F2E41"/>
<path d="M113.823 95.7091H102.424V116.133H113.823V95.7091Z" fill="#2F2E41"/>
<path d="M136.622 95.7091H125.223V116.133H136.622V95.7091Z" fill="#2F2E41"/>
<path d="M111.923 119.933C117.17 119.933 121.423 118.338 121.423 116.371C121.423 114.403 117.17 112.808 111.923 112.808C106.677 112.808 102.424 114.403 102.424 116.371C102.424 118.338 106.677 119.933 111.923 119.933Z" fill="#2F2E41"/>
<path d="M134.722 119.458C139.969 119.458 144.222 117.863 144.222 115.896C144.222 113.928 139.969 112.333 134.722 112.333C129.476 112.333 125.223 113.928 125.223 115.896C125.223 117.863 129.476 119.458 134.722 119.458Z" fill="#2F2E41"/>
<path d="M120.473 69.5854C127.556 69.5854 133.297 63.8437 133.297 56.761C133.297 49.6783 127.556 43.9366 120.473 43.9366C113.39 43.9366 107.648 49.6783 107.648 56.761C107.648 63.8437 113.39 69.5854 120.473 69.5854Z" fill="white"/>
<path d="M127.86 62.407C129.523 60.7449 129.514 58.04 127.84 56.3654C126.166 54.6908 123.461 54.6806 121.798 56.3427C120.136 58.0048 120.145 60.7097 121.818 62.3843C123.492 64.0589 126.197 64.0691 127.86 62.407Z" fill="#3F3D56"/>
<path d="M83.1243 31.3651C80.0945 17.7962 89.7796 4.08538 104.757 0.741125C119.734 -2.60313 134.331 5.68567 137.361 19.2546C140.391 32.8236 130.465 37.828 115.488 41.1722C100.511 44.5164 86.1542 44.9341 83.1243 31.3651Z" fill="#E6E6E6"/>
</svg>
