<svg width="701" height="464" viewBox="0 0 701 464" fill="none" xmlns="http://www.w3.org/2000/svg">
<g id="Group 7">
<path id="Vector" d="M694.091 28.4471C697.662 28.4471 700.558 25.5518 700.558 21.9802C700.558 18.4086 697.662 15.5133 694.091 15.5133C690.519 15.5133 687.624 18.4086 687.624 21.9802C687.624 25.5518 690.519 28.4471 694.091 28.4471Z" fill="#F2F2F2"/>
<path id="Vector_2" d="M668.317 28.4471C671.889 28.4471 674.784 25.5518 674.784 21.9802C674.784 18.4086 671.889 15.5133 668.317 15.5133C664.746 15.5133 661.851 18.4086 661.851 21.9802C661.851 25.5518 664.746 28.4471 668.317 28.4471Z" fill="#F2F2F2"/>
<path id="Vector_3" d="M642.544 28.4471C646.116 28.4471 649.011 25.5518 649.011 21.9802C649.011 18.4086 646.116 15.5133 642.544 15.5133C638.972 15.5133 636.077 18.4086 636.077 21.9802C636.077 25.5518 638.972 28.4471 642.544 28.4471Z" fill="#F2F2F2"/>
<path id="Vector_4" d="M616.771 28.4471C620.342 28.4471 623.237 25.5518 623.237 21.9802C623.237 18.4086 620.342 15.5133 616.771 15.5133C613.199 15.5133 610.304 18.4086 610.304 21.9802C610.304 25.5518 613.199 28.4471 616.771 28.4471Z" fill="#F2F2F2"/>
<path id="Vector_5" d="M694.091 55.4471C697.662 55.4471 700.558 52.5518 700.558 48.9802C700.558 45.4086 697.662 42.5133 694.091 42.5133C690.519 42.5133 687.624 45.4086 687.624 48.9802C687.624 52.5518 690.519 55.4471 694.091 55.4471Z" fill="#F2F2F2"/>
<path id="Vector_6" d="M668.317 55.4471C671.889 55.4471 674.784 52.5518 674.784 48.9802C674.784 45.4086 671.889 42.5133 668.317 42.5133C664.746 42.5133 661.851 45.4086 661.851 48.9802C661.851 52.5518 664.746 55.4471 668.317 55.4471Z" fill="#F2F2F2"/>
<path id="Vector_7" d="M642.544 55.4471C646.116 55.4471 649.011 52.5518 649.011 48.9802C649.011 45.4086 646.116 42.5133 642.544 42.5133C638.972 42.5133 636.077 45.4086 636.077 48.9802C636.077 52.5518 638.972 55.4471 642.544 55.4471Z" fill="#F2F2F2"/>
<path id="Vector_8" d="M616.771 55.4471C620.342 55.4471 623.237 52.5518 623.237 48.9802C623.237 45.4086 620.342 42.5133 616.771 42.5133C613.199 42.5133 610.304 45.4086 610.304 48.9802C610.304 52.5518 613.199 55.4471 616.771 55.4471Z" fill="#F2F2F2"/>
<path id="Vector_9" d="M694.091 82.4471C697.662 82.4471 700.558 79.5518 700.558 75.9802C700.558 72.4086 697.662 69.5133 694.091 69.5133C690.519 69.5133 687.624 72.4086 687.624 75.9802C687.624 79.5518 690.519 82.4471 694.091 82.4471Z" fill="#F2F2F2"/>
<path id="Vector_10" d="M668.317 82.4471C671.889 82.4471 674.784 79.5518 674.784 75.9802C674.784 72.4086 671.889 69.5133 668.317 69.5133C664.746 69.5133 661.851 72.4086 661.851 75.9802C661.851 79.5518 664.746 82.4471 668.317 82.4471Z" fill="#F2F2F2"/>
<path id="Vector_11" d="M642.544 82.4471C646.116 82.4471 649.011 79.5518 649.011 75.9802C649.011 72.4086 646.116 69.5133 642.544 69.5133C638.972 69.5133 636.077 72.4086 636.077 75.9802C636.077 79.5518 638.972 82.4471 642.544 82.4471Z" fill="#F2F2F2"/>
<path id="Vector_12" d="M616.771 82.4471C620.342 82.4471 623.237 79.5518 623.237 75.9802C623.237 72.4086 620.342 69.5133 616.771 69.5133C613.199 69.5133 610.304 72.4086 610.304 75.9802C610.304 79.5518 613.199 82.4471 616.771 82.4471Z" fill="#F2F2F2"/>
<path id="Vector_13" d="M694.091 109.447C697.662 109.447 700.558 106.552 700.558 102.98C700.558 99.4086 697.662 96.5133 694.091 96.5133C690.519 96.5133 687.624 99.4086 687.624 102.98C687.624 106.552 690.519 109.447 694.091 109.447Z" fill="#F2F2F2"/>
<path id="Vector_14" d="M668.317 109.447C671.889 109.447 674.784 106.552 674.784 102.98C674.784 99.4086 671.889 96.5133 668.317 96.5133C664.746 96.5133 661.851 99.4086 661.851 102.98C661.851 106.552 664.746 109.447 668.317 109.447Z" fill="#F2F2F2"/>
<path id="Vector_15" d="M642.544 109.447C646.116 109.447 649.011 106.552 649.011 102.98C649.011 99.4086 646.116 96.5133 642.544 96.5133C638.972 96.5133 636.077 99.4086 636.077 102.98C636.077 106.552 638.972 109.447 642.544 109.447Z" fill="#F2F2F2"/>
<path id="Vector_16" d="M616.771 109.447C620.342 109.447 623.237 106.552 623.237 102.98C623.237 99.4086 620.342 96.5133 616.771 96.5133C613.199 96.5133 610.304 99.4086 610.304 102.98C610.304 106.552 613.199 109.447 616.771 109.447Z" fill="#F2F2F2"/>
<path id="Vector_17" d="M694.091 136.447C697.662 136.447 700.558 133.552 700.558 129.98C700.558 126.409 697.662 123.513 694.091 123.513C690.519 123.513 687.624 126.409 687.624 129.98C687.624 133.552 690.519 136.447 694.091 136.447Z" fill="#F2F2F2"/>
<path id="Vector_18" d="M668.317 136.447C671.889 136.447 674.784 133.552 674.784 129.98C674.784 126.409 671.889 123.513 668.317 123.513C664.746 123.513 661.851 126.409 661.851 129.98C661.851 133.552 664.746 136.447 668.317 136.447Z" fill="#F2F2F2"/>
<path id="Vector_19" d="M642.544 136.447C646.116 136.447 649.011 133.552 649.011 129.98C649.011 126.409 646.116 123.513 642.544 123.513C638.972 123.513 636.077 126.409 636.077 129.98C636.077 133.552 638.972 136.447 642.544 136.447Z" fill="#F2F2F2"/>
<path id="Vector_20" d="M616.771 136.447C620.342 136.447 623.237 133.552 623.237 129.98C623.237 126.409 620.342 123.513 616.771 123.513C613.199 123.513 610.304 126.409 610.304 129.98C610.304 133.552 613.199 136.447 616.771 136.447Z" fill="#F2F2F2"/>
<path id="Vector_21" d="M694.091 163.447C697.662 163.447 700.558 160.552 700.558 156.98C700.558 153.409 697.662 150.513 694.091 150.513C690.519 150.513 687.624 153.409 687.624 156.98C687.624 160.552 690.519 163.447 694.091 163.447Z" fill="#F2F2F2"/>
<path id="Vector_22" d="M668.317 163.447C671.889 163.447 674.784 160.552 674.784 156.98C674.784 153.409 671.889 150.513 668.317 150.513C664.746 150.513 661.851 153.409 661.851 156.98C661.851 160.552 664.746 163.447 668.317 163.447Z" fill="#F2F2F2"/>
<path id="Vector_23" d="M642.544 163.447C646.116 163.447 649.011 160.552 649.011 156.98C649.011 153.409 646.116 150.513 642.544 150.513C638.972 150.513 636.077 153.409 636.077 156.98C636.077 160.552 638.972 163.447 642.544 163.447Z" fill="#F2F2F2"/>
<path id="Vector_24" d="M616.771 163.447C620.342 163.447 623.237 160.552 623.237 156.98C623.237 153.409 620.342 150.513 616.771 150.513C613.199 150.513 610.304 153.409 610.304 156.98C610.304 160.552 613.199 163.447 616.771 163.447Z" fill="#F2F2F2"/>
<path id="Vector_25" d="M683.083 445.961C687.751 435.877 692.416 425.644 694.442 414.718C696.468 403.793 695.618 391.936 689.815 382.459C684.012 372.983 672.587 366.557 661.683 368.699C652.728 370.458 645.537 377.512 641.327 385.609C637.116 393.706 635.427 402.839 633.79 411.817C633.26 401.617 632.7 391.253 629.312 381.618C625.923 371.982 619.251 363.003 609.742 359.275C600.233 355.546 587.863 358.478 582.852 367.378C575.791 379.916 585.153 397.503 577.034 409.384C575.642 397.467 563.18 388.051 551.335 389.968C539.491 391.884 530.634 404.749 533.071 416.497C534.521 423.487 539.29 429.433 544.992 433.729C550.695 438.025 557.327 443.003 563.887 445.819L683.083 445.961Z" fill="#F2F2F2"/>
<path id="Vector_26" d="M539.289 398.387C548.698 401.676 558.192 405.002 566.782 410.143C574.48 414.751 581.335 420.955 585.664 428.9C588.036 433.162 589.444 437.893 589.79 442.758C589.852 443.776 591.444 443.783 591.382 442.758C590.825 433.697 586.409 425.405 580.295 418.848C573.59 411.658 564.903 406.747 555.933 402.937C550.615 400.678 545.165 398.758 539.713 396.852C538.744 396.514 538.327 398.051 539.289 398.387H539.289Z" fill="white"/>
<path id="Vector_27" d="M593.557 360.854C599.338 370.484 603.966 380.76 607.349 391.47C610.737 402.176 612.872 413.24 613.71 424.438C614.173 430.707 614.224 437 613.861 443.275C613.802 444.298 615.394 444.295 615.453 443.275C616.095 431.961 615.41 420.61 613.412 409.455C611.418 398.301 608.14 387.415 603.643 377.015C601.119 371.173 598.209 365.506 594.932 360.051C594.821 359.876 594.648 359.751 594.447 359.703C594.246 359.654 594.035 359.684 593.856 359.789C593.678 359.893 593.547 360.062 593.492 360.261C593.436 360.46 593.459 360.673 593.557 360.854Z" fill="white"/>
<path id="Vector_28" d="M671.458 369.997C663.282 388.367 657.528 407.722 654.341 427.575C653.446 433.152 652.754 438.756 652.263 444.387C652.174 445.407 653.767 445.401 653.855 444.387C655.588 424.578 659.869 405.075 666.593 386.362C668.482 381.1 670.562 375.913 672.832 370.8C673.244 369.872 671.873 369.062 671.458 369.997Z" fill="white"/>
<path id="Vector_29" d="M333.263 190.543H194.534C192.54 190.541 190.628 189.747 189.218 188.337C187.808 186.927 187.015 185.016 187.013 183.021V7.52142C187.015 5.52731 187.808 3.61553 189.218 2.20547C190.628 0.795424 192.54 0.00226824 194.534 0H333.263C335.257 0.00227091 337.169 0.795429 338.579 2.20549C339.989 3.61555 340.782 5.52735 340.784 7.52147V183.021C340.782 185.016 339.989 186.927 338.579 188.337C337.169 189.747 335.257 190.541 333.263 190.543ZM194.534 1.67148C192.983 1.67321 191.496 2.2901 190.399 3.38681C189.303 4.48352 188.686 5.97049 188.684 7.52147V183.021C188.686 184.572 189.303 186.059 190.399 187.156C191.496 188.253 192.983 188.87 194.534 188.871H333.263C334.814 188.87 336.301 188.253 337.397 187.156C338.494 186.059 339.111 184.572 339.113 183.021V7.52147C339.111 5.97049 338.494 4.48354 337.397 3.38683C336.301 2.29011 334.814 1.67322 333.263 1.67148H194.534Z" fill="#3F3D56"/>
<path id="Vector_30" d="M252.358 84.3584H221.821C220.824 84.3573 219.868 83.9607 219.163 83.2557C218.458 82.5506 218.062 81.5947 218.061 80.5977V44.562C218.062 43.5649 218.458 42.609 219.163 41.904C219.868 41.199 220.824 40.8024 221.821 40.8013H252.358C253.355 40.8024 254.311 41.199 255.016 41.904C255.721 42.609 256.118 43.5649 256.119 44.562V80.5977C256.118 81.5947 255.721 82.5506 255.016 83.2557C254.311 83.9607 253.355 84.3573 252.358 84.3584Z" fill="#6C63FF"/>
<path id="Vector_31" d="M311.694 101.073H281.157C280.16 101.072 279.204 100.675 278.499 99.97C277.794 99.265 277.398 98.3091 277.396 97.312V61.2763C277.398 60.2793 277.794 59.3234 278.499 58.6183C279.204 57.9133 280.16 57.5167 281.157 57.5156H311.694C312.691 57.5167 313.647 57.9133 314.352 58.6183C315.057 59.3234 315.454 60.2793 315.455 61.2763V97.312C315.454 98.3091 315.057 99.265 314.352 99.97C313.647 100.675 312.691 101.072 311.694 101.073Z" fill="#CCCCCC"/>
<path id="Vector_32" d="M264.058 152.051H233.521C232.524 152.05 231.568 151.654 230.863 150.949C230.158 150.244 229.762 149.288 229.761 148.291V112.255C229.762 111.258 230.158 110.302 230.863 109.597C231.568 108.892 232.524 108.495 233.521 108.494H264.058C265.056 108.495 266.011 108.892 266.716 109.597C267.421 110.302 267.818 111.258 267.819 112.255V148.291C267.818 149.288 267.421 150.244 266.716 150.949C266.011 151.654 265.056 152.05 264.058 152.051Z" fill="#FF6584"/>
<path id="Vector_33" d="M34.9308 18.2872C38.5023 18.2872 41.3976 15.3918 41.3976 11.8203C41.3976 8.24872 38.5023 5.35339 34.9308 5.35339C31.3592 5.35339 28.4639 8.24872 28.4639 11.8203C28.4639 15.3918 31.3592 18.2872 34.9308 18.2872Z" fill="#F2F2F2"/>
<path id="Vector_34" d="M34.9308 44.0605C38.5023 44.0605 41.3976 41.1652 41.3976 37.5936C41.3976 34.022 38.5023 31.1267 34.9308 31.1267C31.3592 31.1267 28.4639 34.022 28.4639 37.5936C28.4639 41.1652 31.3592 44.0605 34.9308 44.0605Z" fill="#F2F2F2"/>
<path id="Vector_35" d="M34.9308 69.8338C38.5023 69.8338 41.3976 66.9385 41.3976 63.3669C41.3976 59.7953 38.5023 56.9 34.9308 56.9C31.3592 56.9 28.4639 59.7953 28.4639 63.3669C28.4639 66.9385 31.3592 69.8338 34.9308 69.8338Z" fill="#F2F2F2"/>
<path id="Vector_36" d="M34.9308 95.6071C38.5023 95.6071 41.3976 92.7118 41.3976 89.1402C41.3976 85.5687 38.5023 82.6733 34.9308 82.6733C31.3592 82.6733 28.4639 85.5687 28.4639 89.1402C28.4639 92.7118 31.3592 95.6071 34.9308 95.6071Z" fill="#F2F2F2"/>
<path id="Vector_37" d="M61.9308 18.2872C65.5023 18.2872 68.3976 15.3918 68.3976 11.8203C68.3976 8.24872 65.5023 5.35339 61.9308 5.35339C58.3592 5.35339 55.4639 8.24872 55.4639 11.8203C55.4639 15.3918 58.3592 18.2872 61.9308 18.2872Z" fill="#F2F2F2"/>
<path id="Vector_38" d="M61.9308 44.0605C65.5023 44.0605 68.3976 41.1652 68.3976 37.5936C68.3976 34.022 65.5023 31.1267 61.9308 31.1267C58.3592 31.1267 55.4639 34.022 55.4639 37.5936C55.4639 41.1652 58.3592 44.0605 61.9308 44.0605Z" fill="#F2F2F2"/>
<path id="Vector_39" d="M61.9308 69.8338C65.5023 69.8338 68.3976 66.9385 68.3976 63.3669C68.3976 59.7953 65.5023 56.9 61.9308 56.9C58.3592 56.9 55.4639 59.7953 55.4639 63.3669C55.4639 66.9385 58.3592 69.8338 61.9308 69.8338Z" fill="#F2F2F2"/>
<path id="Vector_40" d="M61.9308 95.6071C65.5023 95.6071 68.3976 92.7118 68.3976 89.1402C68.3976 85.5687 65.5023 82.6733 61.9308 82.6733C58.3592 82.6733 55.4639 85.5687 55.4639 89.1402C55.4639 92.7118 58.3592 95.6071 61.9308 95.6071Z" fill="#F2F2F2"/>
<path id="Vector_41" d="M88.9308 18.2872C92.5023 18.2872 95.3976 15.3918 95.3976 11.8203C95.3976 8.24872 92.5023 5.35339 88.9308 5.35339C85.3592 5.35339 82.4639 8.24872 82.4639 11.8203C82.4639 15.3918 85.3592 18.2872 88.9308 18.2872Z" fill="#F2F2F2"/>
<path id="Vector_42" d="M88.9308 44.0605C92.5023 44.0605 95.3976 41.1652 95.3976 37.5936C95.3976 34.022 92.5023 31.1267 88.9308 31.1267C85.3592 31.1267 82.4639 34.022 82.4639 37.5936C82.4639 41.1652 85.3592 44.0605 88.9308 44.0605Z" fill="#F2F2F2"/>
<path id="Vector_43" d="M88.9308 69.8338C92.5023 69.8338 95.3976 66.9385 95.3976 63.3669C95.3976 59.7953 92.5023 56.9 88.9308 56.9C85.3592 56.9 82.4639 59.7953 82.4639 63.3669C82.4639 66.9385 85.3592 69.8338 88.9308 69.8338Z" fill="#F2F2F2"/>
<path id="Vector_44" d="M88.9308 95.6071C92.5023 95.6071 95.3976 92.7118 95.3976 89.1402C95.3976 85.5687 92.5023 82.6733 88.9308 82.6733C85.3592 82.6733 82.4639 85.5687 82.4639 89.1402C82.4639 92.7118 85.3592 95.6071 88.9308 95.6071Z" fill="#F2F2F2"/>
<path id="Vector_45" d="M115.931 18.2872C119.502 18.2872 122.398 15.3918 122.398 11.8203C122.398 8.24872 119.502 5.35339 115.931 5.35339C112.359 5.35339 109.464 8.24872 109.464 11.8203C109.464 15.3918 112.359 18.2872 115.931 18.2872Z" fill="#F2F2F2"/>
<path id="Vector_46" d="M115.931 44.0605C119.502 44.0605 122.398 41.1652 122.398 37.5936C122.398 34.022 119.502 31.1267 115.931 31.1267C112.359 31.1267 109.464 34.022 109.464 37.5936C109.464 41.1652 112.359 44.0605 115.931 44.0605Z" fill="#F2F2F2"/>
<path id="Vector_47" d="M115.931 69.8338C119.502 69.8338 122.398 66.9385 122.398 63.3669C122.398 59.7953 119.502 56.9 115.931 56.9C112.359 56.9 109.464 59.7953 109.464 63.3669C109.464 66.9385 112.359 69.8338 115.931 69.8338Z" fill="#F2F2F2"/>
<path id="Vector_48" d="M115.931 95.6071C119.502 95.6071 122.398 92.7118 122.398 89.1402C122.398 85.5687 119.502 82.6733 115.931 82.6733C112.359 82.6733 109.464 85.5687 109.464 89.1402C109.464 92.7118 112.359 95.6071 115.931 95.6071Z" fill="#F2F2F2"/>
<path id="Vector_49" d="M142.931 18.2872C146.502 18.2872 149.398 15.3918 149.398 11.8203C149.398 8.24872 146.502 5.35339 142.931 5.35339C139.359 5.35339 136.464 8.24872 136.464 11.8203C136.464 15.3918 139.359 18.2872 142.931 18.2872Z" fill="#F2F2F2"/>
<path id="Vector_50" d="M142.931 44.0605C146.502 44.0605 149.398 41.1652 149.398 37.5936C149.398 34.022 146.502 31.1267 142.931 31.1267C139.359 31.1267 136.464 34.022 136.464 37.5936C136.464 41.1652 139.359 44.0605 142.931 44.0605Z" fill="#F2F2F2"/>
<path id="Vector_51" d="M142.931 69.8338C146.502 69.8338 149.398 66.9385 149.398 63.3669C149.398 59.7953 146.502 56.9 142.931 56.9C139.359 56.9 136.464 59.7953 136.464 63.3669C136.464 66.9385 139.359 69.8338 142.931 69.8338Z" fill="#F2F2F2"/>
<path id="Vector_52" d="M142.931 95.6071C146.502 95.6071 149.398 92.7118 149.398 89.1402C149.398 85.5687 146.502 82.6733 142.931 82.6733C139.359 82.6733 136.464 85.5687 136.464 89.1402C136.464 92.7118 139.359 95.6071 142.931 95.6071Z" fill="#F2F2F2"/>
<path id="Vector_53" d="M169.931 18.2872C173.502 18.2872 176.398 15.3918 176.398 11.8203C176.398 8.24872 173.502 5.35339 169.931 5.35339C166.359 5.35339 163.464 8.24872 163.464 11.8203C163.464 15.3918 166.359 18.2872 169.931 18.2872Z" fill="#F2F2F2"/>
<path id="Vector_54" d="M169.931 44.0605C173.502 44.0605 176.398 41.1652 176.398 37.5936C176.398 34.022 173.502 31.1267 169.931 31.1267C166.359 31.1267 163.464 34.022 163.464 37.5936C163.464 41.1652 166.359 44.0605 169.931 44.0605Z" fill="#F2F2F2"/>
<path id="Vector_55" d="M169.931 69.8338C173.502 69.8338 176.398 66.9385 176.398 63.3669C176.398 59.7953 173.502 56.9 169.931 56.9C166.359 56.9 163.464 59.7953 163.464 63.3669C163.464 66.9385 166.359 69.8338 169.931 69.8338Z" fill="#F2F2F2"/>
<path id="Vector_56" d="M169.931 95.6071C173.502 95.6071 176.398 92.7118 176.398 89.1402C176.398 85.5687 173.502 82.6733 169.931 82.6733C166.359 82.6733 163.464 85.5687 163.464 89.1402C163.464 92.7118 166.359 95.6071 169.931 95.6071Z" fill="#F2F2F2"/>
<path id="Vector_57" d="M100.045 454.434C123.247 454.434 142.057 435.624 142.057 412.421C142.057 389.218 123.247 370.409 100.045 370.409C76.8418 370.409 58.0322 389.218 58.0322 412.421C58.0322 435.624 76.8418 454.434 100.045 454.434Z" fill="#2F2E41"/>
<path id="Vector_58" d="M84.069 440.024L63.6221 450.263L69.3371 461.675L89.7841 451.436L84.069 440.024Z" fill="#2F2E41"/>
<path id="Vector_59" d="M72.0329 460.517C73.2454 458.678 70.2529 454.566 65.3488 451.333C60.4447 448.099 55.4862 446.969 54.2737 448.808C53.0611 450.647 56.0537 454.759 60.9577 457.992C65.8618 461.226 70.8203 462.356 72.0329 460.517Z" fill="#2F2E41"/>
<path id="Vector_60" d="M116.021 440.024L110.306 451.436L130.753 461.675L136.468 450.263L116.021 440.024Z" fill="#2F2E41"/>
<path id="Vector_61" d="M139.132 457.992C144.036 454.759 147.029 450.647 145.816 448.808C144.604 446.969 139.645 448.099 134.741 451.333C129.837 454.566 126.844 458.678 128.057 460.517C129.269 462.356 134.228 461.226 139.132 457.992Z" fill="#2F2E41"/>
<path id="Vector_62" d="M97.1038 416.503C105.034 416.503 111.462 410.075 111.462 402.145C111.462 394.215 105.034 387.786 97.1038 387.786C89.1737 387.786 82.7451 394.215 82.7451 402.145C82.7451 410.075 89.1737 416.503 97.1038 416.503Z" fill="white"/>
<path id="Vector_63" d="M88.6962 402.492C93.8192 398.59 99.6103 404.381 95.7083 409.504C90.5853 413.406 84.7942 407.615 88.6962 402.492Z" fill="#3F3D56"/>
<path id="Vector_64" d="M133.187 366.716C133.818 351.163 120.413 337.989 103.246 337.291C86.0782 336.594 71.6489 348.637 71.0171 364.191C70.3853 379.745 82.319 383.278 99.4867 383.976C116.654 384.673 132.555 382.27 133.187 366.716Z" fill="#CCCCCC"/>
<path id="Vector_65" d="M157.403 434.42C160.167 432.048 156.281 422.989 148.724 414.186C141.167 405.384 132.801 400.171 130.038 402.543C127.274 404.915 131.16 413.975 138.717 422.777C146.274 431.58 154.64 436.793 157.403 434.42Z" fill="#2F2E41"/>
<path id="Vector_66" d="M61.4899 422.777C69.0467 413.974 72.9325 404.915 70.1691 402.543C67.4057 400.171 59.0395 405.384 51.4826 414.186C43.9258 422.989 40.04 432.048 42.8034 434.42C45.5668 436.793 53.9331 431.58 61.4899 422.777Z" fill="#2F2E41"/>
<path id="Vector_67" d="M111.584 428.978C111.81 430.215 111.79 431.485 111.526 432.714C111.261 433.944 110.757 435.109 110.041 436.144C109.326 437.179 108.414 438.062 107.357 438.744C106.3 439.426 105.119 439.893 103.882 440.118C102.644 440.343 101.375 440.323 100.145 440.057C98.9159 439.791 97.7509 439.286 96.7169 438.57C95.683 437.853 94.8002 436.941 94.1193 435.883C93.4383 434.826 92.9724 433.644 92.7482 432.407L92.7448 432.388C91.8031 427.186 95.8252 425.345 101.027 424.403C106.23 423.462 110.642 423.776 111.584 428.978Z" fill="white"/>
<path id="Vector_68" d="M544.297 327.323H488.287C488.287 327.986 488.023 328.622 487.555 329.091C487.086 329.56 486.45 329.823 485.787 329.823H430.807C430.031 330.408 429.323 331.079 428.697 331.823C426.818 334.065 425.791 336.898 425.797 339.823V341.823C425.798 345.138 427.115 348.317 429.459 350.661C431.803 353.005 434.982 354.322 438.297 354.323H544.297C547.611 354.32 550.789 353.003 553.133 350.659C555.476 348.315 556.794 345.138 556.797 341.823V339.823C556.792 336.51 555.474 333.333 553.131 330.99C550.787 328.646 547.611 327.328 544.297 327.323Z" fill="#3F3D56"/>
<path id="Vector_69" d="M498.292 353.827H485.292V445.827H498.292V353.827Z" fill="#3F3D56"/>
<path id="Vector_70" d="M535.292 445.37C535.292 446.775 515.593 445.913 491.292 445.913C466.991 445.913 447.292 446.775 447.292 445.37C447.292 443.965 466.991 432.827 491.292 432.827C515.593 432.827 535.292 443.966 535.292 445.37Z" fill="#3F3D56"/>
<path id="Vector_71" d="M541.847 330.203L539.667 316.563C539.391 314.844 538.444 313.305 537.034 312.283C535.624 311.262 533.867 310.841 532.147 311.113L509.657 314.703L471.137 320.853L458.607 322.853H485.787C486.45 322.854 487.086 323.117 487.555 323.586C488.023 324.055 488.287 324.69 488.287 325.353V327.323C488.287 327.986 488.023 328.622 487.555 329.091C487.086 329.56 486.45 329.823 485.787 329.823H416.617C415.652 330.275 414.816 330.963 414.187 331.823C413.655 332.523 413.271 333.323 413.058 334.176C412.845 335.029 412.807 335.916 412.947 336.783L413.567 340.663L414.317 345.373L415.127 350.433C415.402 352.148 416.347 353.684 417.753 354.704C419.159 355.723 420.911 356.144 422.627 355.873L440.497 353.023L492.037 344.793L536.397 337.713C538.112 337.434 539.648 336.488 540.669 335.081C541.69 333.674 542.113 331.921 541.847 330.203Z" fill="#6C63FF"/>
<path id="Vector_72" d="M439.127 331.823C438.47 330.95 437.598 330.261 436.597 329.823H417.477C416.471 330.259 415.596 330.948 414.937 331.823C414.047 332.963 413.565 334.368 413.567 335.813V412.023C413.569 413.76 414.26 415.424 415.488 416.652C416.716 417.88 418.381 418.571 420.117 418.573H433.947C435.684 418.571 437.348 417.88 438.576 416.652C439.804 415.424 440.495 413.76 440.497 412.023V335.813C440.498 334.368 440.016 332.963 439.127 331.823Z" fill="#6C63FF"/>
<path id="Vector_73" d="M480.747 202.023L480.617 201.853L472.037 191.283C471.58 190.716 471.028 190.232 470.407 189.853C470.077 189.63 469.721 189.449 469.347 189.313C468.799 189.094 468.224 188.953 467.637 188.893C467.245 188.852 466.85 188.845 466.457 188.873C466.449 188.874 466.442 188.878 466.437 188.883C465.111 188.981 463.847 189.484 462.816 190.323L445.207 204.603L422.577 222.963L388.807 250.363L386.347 252.363H429.077L431.546 250.363L439.717 243.733L440.296 243.273L479.756 211.263L479.787 211.243C480.599 210.59 481.24 209.749 481.657 208.793C481.931 208.167 482.107 207.503 482.177 206.823C482.268 205.968 482.188 205.104 481.943 204.28C481.697 203.456 481.291 202.689 480.747 202.023Z" fill="#6C63FF"/>
<path id="Vector_74" d="M480.617 201.853C480.065 199.159 478.841 196.647 477.057 194.553C475.279 192.443 472.99 190.825 470.407 189.853C470.007 189.703 469.617 189.563 469.217 189.453C468.315 189.185 467.391 188.991 466.457 188.873C466.449 188.874 466.442 188.878 466.437 188.883C462.23 188.397 457.998 189.566 454.637 192.143L424.177 215.423C423.53 216.002 423.007 216.704 422.637 217.49C422.268 218.275 422.06 219.126 422.027 219.993C421.98 221.012 422.168 222.029 422.577 222.963C422.677 223.173 422.787 223.383 422.907 223.583C423.14 223.989 423.422 224.366 423.747 224.703L428.627 230.183L439.977 242.913L440.297 243.273L441.027 244.103C441.608 244.74 442.309 245.256 443.09 245.622C443.871 245.987 444.716 246.195 445.577 246.233C446.438 246.271 447.298 246.139 448.108 245.844C448.918 245.549 449.662 245.096 450.297 244.513L476.567 216.293C477.932 214.828 479.013 213.123 479.757 211.263C480.957 208.278 481.256 205.007 480.617 201.853Z" fill="#2F2E41"/>
<path id="Vector_75" d="M492.23 165.643C519.912 165.643 542.352 143.202 542.352 115.521C542.352 87.8389 519.912 65.3984 492.23 65.3984C464.549 65.3984 442.108 87.8389 442.108 115.521C442.108 143.202 464.549 165.643 492.23 165.643Z" fill="#6C63FF"/>
<path id="Vector_76" d="M511.027 323.303L509.657 314.703L508.847 309.653C508.571 307.937 507.625 306.4 506.217 305.38C504.809 304.36 503.054 303.941 501.337 304.213L464.907 310.023L455.027 311.603L453.027 311.923V322.853H485.787C486.45 322.854 487.086 323.117 487.555 323.586C488.023 324.055 488.287 324.691 488.287 325.353V327.323C488.287 327.986 488.023 328.622 487.555 329.091C487.086 329.56 486.45 329.823 485.787 329.823H382.117C382.117 329.843 382.127 329.863 382.127 329.883L382.747 333.763L384.307 343.523C384.583 345.238 385.527 346.774 386.933 347.794C388.339 348.813 390.092 349.234 391.807 348.963L409.677 346.113L413.567 345.493L414.317 345.373L440.497 341.193L458.307 338.343L486.567 333.833L486.987 333.763L505.577 330.803C507.293 330.529 508.83 329.585 509.851 328.179C510.873 326.773 511.296 325.02 511.027 323.303Z" fill="#6C63FF"/>
<path id="Vector_77" d="M560.447 286.523C560.447 327.383 556.297 351.823 492.297 344.823C492.207 344.813 492.127 344.803 492.037 344.793C480.622 343.666 469.333 341.507 458.307 338.343C452.577 336.67 447.008 334.488 441.667 331.823C440.407 331.183 439.197 330.513 438.007 329.823H485.787C486.45 329.823 487.086 329.56 487.555 329.091C488.023 328.622 488.287 327.986 488.287 327.323V325.353C488.287 324.69 488.023 324.055 487.555 323.586C487.086 323.117 486.45 322.854 485.787 322.853H453.027V259.693C453.025 257.75 452.251 255.887 450.877 254.513C449.503 253.139 447.64 252.366 445.697 252.363H447.047C447.277 251.703 447.507 251.033 447.757 250.363C450.187 243.613 449.948 238.304 453.398 231.694C458.138 222.574 458.168 213.404 464.398 205.694C469.038 199.964 454.827 193.713 460.047 189.413C470.077 181.133 480.997 176.013 492.077 176.013C532.937 176.013 560.447 245.663 560.447 286.523Z" fill="#2F2E41"/>
<path id="Vector_78" d="M493.283 134.098L493.336 132.224C489.851 132.128 486.779 131.909 484.471 130.223C483.816 129.717 483.278 129.077 482.893 128.345C482.509 127.613 482.286 126.807 482.24 125.982C482.2 125.477 482.276 124.97 482.463 124.5C482.651 124.03 482.944 123.609 483.32 123.271C484.852 121.977 487.318 122.396 489.115 123.22L490.665 123.93L487.693 102.212L485.837 102.466L488.365 120.94C487.331 120.557 486.216 120.438 485.124 120.595C484.031 120.752 482.996 121.18 482.111 121.84C481.516 122.36 481.049 123.01 480.747 123.74C480.445 124.47 480.315 125.259 480.369 126.047C480.423 127.157 480.72 128.241 481.238 129.223C481.755 130.206 482.482 131.063 483.366 131.735C486.332 133.903 490.186 134.011 493.283 134.098Z" fill="#2F2E41"/>
<path id="Vector_79" d="M476.66 104.059H466.572V105.932H476.66V104.059Z" fill="#2F2E41"/>
<path id="Vector_80" d="M508.502 104.059H498.415V105.932H508.502V104.059Z" fill="#2F2E41"/>
<path id="Vector_81" d="M522.027 216.353L518.057 213.593L510.667 208.463C509.238 207.475 507.476 207.094 505.766 207.404C504.056 207.713 502.539 208.687 501.547 210.113L477.457 244.783L455.027 277.063L453.027 279.943V322.853H453.207C454.766 322.699 456.218 321.989 457.297 320.853C457.529 320.615 457.74 320.358 457.927 320.083L464.907 310.023L482.157 285.193L500.037 259.473L501.737 257.023L523.657 225.473C523.777 225.306 523.887 225.133 523.987 224.953C524.087 224.782 524.177 224.605 524.257 224.423C524.886 223.03 525.007 221.46 524.6 219.986C524.193 218.512 523.283 217.227 522.027 216.353Z" fill="#6C63FF"/>
<path id="Vector_82" d="M522.097 202.633C521.39 202.169 520.648 201.761 519.877 201.413C516.461 199.848 512.609 199.506 508.971 200.446C505.332 201.385 502.128 203.549 499.897 206.573L477.137 237.433C476.68 238.168 476.374 238.987 476.236 239.841C476.098 240.695 476.131 241.568 476.334 242.41C476.537 243.251 476.905 244.044 477.417 244.741C477.929 245.439 478.575 246.028 479.317 246.473L500.037 259.473L500.297 259.633L501.337 260.283C502.824 261.182 504.608 261.456 506.296 261.044C507.985 260.631 509.441 259.567 510.347 258.083L526.417 226.183L526.687 225.653L526.697 225.643L527.687 223.653C529.492 220.073 529.92 215.955 528.89 212.08C527.86 208.205 525.442 204.844 522.097 202.633Z" fill="#2F2E41"/>
<path id="Vector_83" d="M382.747 329.823V405.113C382.75 406.85 383.44 408.514 384.668 409.742C385.896 410.97 387.561 411.661 389.297 411.663H403.127C404.863 411.661 406.528 410.97 407.756 409.742C408.984 408.514 409.675 406.85 409.677 405.113V329.823H382.747Z" fill="#6C63FF"/>
<path id="Vector_84" d="M485.787 320.853H455.027V259.693C455.025 257.22 454.041 254.848 452.292 253.099C450.542 251.35 448.171 250.366 445.697 250.363H331.627C329.152 250.364 326.778 251.347 325.027 253.096C323.276 254.845 322.29 257.218 322.287 259.693V322.493C322.29 324.969 323.276 327.341 325.027 329.091C326.778 330.84 329.152 331.823 331.627 331.823H485.787C485.947 331.823 486.097 331.813 486.247 331.803C486.387 331.793 486.527 331.763 486.667 331.743C487.687 331.537 488.605 330.984 489.265 330.179C489.925 329.373 490.286 328.365 490.287 327.323V325.353C490.287 324.16 489.813 323.015 488.969 322.171C488.125 321.328 486.981 320.853 485.787 320.853ZM485.787 329.823H331.627C329.682 329.823 327.817 329.05 326.441 327.676C325.065 326.302 324.29 324.438 324.287 322.493V259.693C324.29 257.749 325.065 255.885 326.441 254.511C327.817 253.136 329.682 252.364 331.627 252.363H445.697C447.64 252.366 449.503 253.139 450.877 254.513C452.251 255.887 453.024 257.75 453.027 259.693V322.853H485.787C486.45 322.854 487.086 323.117 487.555 323.586C488.023 324.055 488.287 324.69 488.287 325.353V327.323C488.287 327.986 488.023 328.622 487.555 329.091C487.086 329.56 486.45 329.823 485.787 329.823Z" fill="#3F3D56"/>
<path id="Vector_85" d="M388.658 298.785C392.905 298.785 396.348 295.342 396.348 291.094C396.348 286.847 392.905 283.404 388.658 283.404C384.411 283.404 380.968 286.847 380.968 291.094C380.968 295.342 384.411 298.785 388.658 298.785Z" fill="#6C63FF"/>
<path id="Vector_86" d="M454.997 321.913H452.997V330.913H454.997V321.913Z" fill="#3F3D56"/>
<path id="Vector_87" d="M145.554 260.36C149.8 249.251 150.415 239.165 146.927 237.832C143.44 236.499 137.171 244.424 132.924 255.533C128.678 266.642 128.063 276.728 131.551 278.061C135.038 279.394 141.308 271.469 145.554 260.36Z" fill="#2F2E41"/>
<path id="Vector_88" d="M141.944 297.368C145.754 273.889 129.809 251.768 106.331 247.958C82.8527 244.148 60.7311 260.092 56.9211 283.57C53.1111 307.049 69.0554 329.17 92.5337 332.98C116.012 336.79 138.134 320.846 141.944 297.368Z" fill="#2F2E41"/>
<path id="Vector_89" d="M92.8904 324.269H79.8066V347.71H92.8904V324.269Z" fill="#2F2E41"/>
<path id="Vector_90" d="M119.057 324.269H105.974V347.71H119.057V324.269Z" fill="#2F2E41"/>
<path id="Vector_91" d="M90.7098 352.072C96.7314 352.072 101.613 350.241 101.613 347.983C101.613 345.725 96.7314 343.894 90.7098 343.894C84.6881 343.894 79.8066 345.725 79.8066 347.983C79.8066 350.241 84.6881 352.072 90.7098 352.072Z" fill="#2F2E41"/>
<path id="Vector_92" d="M116.877 351.526C122.898 351.526 127.78 349.696 127.78 347.438C127.78 345.18 122.898 343.349 116.877 343.349C110.855 343.349 105.974 345.18 105.974 347.438C105.974 349.696 110.855 351.526 116.877 351.526Z" fill="#2F2E41"/>
<path id="Vector_93" d="M100.955 294.279C109.08 294.04 115.474 287.259 115.235 279.133C114.996 271.008 108.216 264.614 100.09 264.853C91.9641 265.092 85.5705 271.872 85.8093 279.998C86.0481 288.124 92.8288 294.517 100.955 294.279Z" fill="white"/>
<path id="Vector_94" d="M100.523 284.472C103.232 284.472 105.429 282.275 105.429 279.566C105.429 276.856 103.232 274.659 100.523 274.659C97.8129 274.659 95.6162 276.856 95.6162 279.566C95.6162 282.275 97.8129 284.472 100.523 284.472Z" fill="#3F3D56"/>
<path id="Vector_95" d="M57.6553 250.418C54.1778 234.844 65.2939 219.107 82.4839 215.269C99.6738 211.43 116.428 220.944 119.906 236.518C123.383 252.091 111.991 257.835 94.8007 261.674C77.6108 265.512 61.1327 265.991 57.6553 250.418Z" fill="#6C63FF"/>
<path id="Vector_96" d="M70.3798 279.713C71.9797 276.34 64.5658 269.474 53.8204 264.377C43.075 259.281 33.0671 257.884 31.4672 261.258C29.8673 264.631 37.2812 271.497 48.0266 276.593C58.772 281.69 68.7798 283.086 70.3798 279.713Z" fill="#2F2E41"/>
<path id="Vector_97" d="M78.2773 306.006C78.2773 310.221 89.1306 318.544 101.174 318.544C113.217 318.544 124.509 306.677 124.509 302.462C124.509 298.247 113.217 303.28 101.174 303.28C89.1307 303.28 78.2773 301.791 78.2773 306.006Z" fill="white"/>
<path id="Vector_98" d="M182.543 281.238L150.842 287.426C150.328 287.528 149.799 287.511 149.293 287.378C148.786 287.244 148.318 286.996 147.922 286.654C147.518 286.307 147.198 285.873 146.987 285.384C146.777 284.896 146.68 284.365 146.705 283.834C147.246 270.834 144.719 257.89 139.329 246.048C139.106 245.565 138.996 245.037 139.008 244.505C139.019 243.973 139.152 243.45 139.396 242.977C139.634 242.511 139.976 242.105 140.394 241.791C140.813 241.477 141.297 241.262 141.811 241.163L173.513 234.975C174.323 234.819 175.163 234.955 175.882 235.36C176.602 235.764 177.154 236.411 177.441 237.185C182.131 250.212 184.799 263.879 185.353 277.714C185.377 278.539 185.109 279.346 184.594 279.991C184.08 280.636 183.353 281.078 182.543 281.238Z" fill="#FF6584"/>
<path id="Vector_99" d="M43.5433 310.238L11.8418 316.426C11.3284 316.528 10.7985 316.511 10.2925 316.378C9.7865 316.244 9.31767 315.996 8.92176 315.654C8.51778 315.307 8.19821 314.873 7.98737 314.384C7.77654 313.896 7.68 313.365 7.70512 312.834C8.24591 299.834 5.71913 286.89 0.329141 275.048C0.106018 274.565 -0.0039419 274.037 0.00766848 273.505C0.0192789 272.973 0.152139 272.45 0.396127 271.977C0.634204 271.511 0.975502 271.105 1.39405 270.791C1.8126 270.477 2.29737 270.262 2.81141 270.163L34.5129 263.975C35.3232 263.819 36.1628 263.955 36.8822 264.36C37.6016 264.764 38.1541 265.411 38.4413 266.185C43.1306 279.212 45.7986 292.879 46.3525 306.714C46.3774 307.538 46.1087 308.346 45.5942 308.991C45.0798 309.636 44.353 310.078 43.5433 310.238Z" fill="#CCCCCC"/>
<path id="Vector_100" d="M506.653 80.3321C497.628 84.3604 487.39 84.7163 478.108 81.3243C471.302 78.7149 465.404 74.178 461.135 68.2688C456.867 62.3597 454.414 55.3345 454.076 48.053L451.819 49.3482L461.335 56.0437C461.534 56.158 461.756 56.2254 461.985 56.2408C462.214 56.2563 462.443 56.2194 462.655 56.133C462.868 56.0466 463.058 55.9129 463.211 55.7421C463.364 55.5713 463.476 55.3679 463.538 55.1473C464.207 52.4694 465.421 49.9582 467.103 47.7704C468.786 45.5826 470.902 43.7652 473.318 42.4318C478.617 39.4766 484.777 38.4518 490.747 39.5325C503.111 41.5382 514.242 49.7809 521.484 59.776C525.437 65.2136 528.366 71.3264 530.126 77.8145C530.242 78.1859 530.498 78.4976 530.84 78.6838C531.182 78.8701 531.582 78.9164 531.958 78.813C532.333 78.7095 532.653 78.4645 532.851 78.1294C533.049 77.7944 533.109 77.3955 533.019 77.017C529.569 64.4038 521.989 53.3118 511.491 45.5147C500.746 37.5359 485.703 32.7134 473.064 39.1542C467.048 42.2197 462.152 47.6771 460.646 54.3498L462.849 53.4533L453.333 46.7578C453.105 46.6275 452.846 46.5591 452.583 46.5594C452.32 46.5598 452.062 46.6288 451.834 46.7597C451.606 46.8905 451.416 47.0787 451.283 47.3056C451.15 47.5324 451.079 47.7901 451.076 48.053C451.547 58.1582 455.731 67.7341 462.826 74.9451C470.242 82.3567 480.276 86.5537 490.76 86.6296C496.765 86.6956 502.71 85.4296 508.167 82.9225C509.92 82.1196 508.397 79.5331 506.653 80.3321Z" fill="#2F2E41"/>
<path id="Vector_101" d="M85.6742 456.162L53.9727 462.35C53.4593 462.452 52.9294 462.435 52.4233 462.301C51.9173 462.167 51.4485 461.92 51.0526 461.577C50.6486 461.231 50.3291 460.797 50.1182 460.308C49.9074 459.819 49.8109 459.289 49.836 458.757C50.3768 445.758 47.85 432.813 42.46 420.971C42.2368 420.488 42.1269 419.961 42.1385 419.428C42.1501 418.896 42.283 418.374 42.527 417.901C42.7651 417.435 43.1064 417.029 43.5249 416.715C43.9435 416.4 44.4282 416.186 44.9423 416.087L76.6437 409.899C77.4541 409.742 78.2937 409.879 79.0131 410.283C79.7324 410.688 80.2849 411.334 80.5721 412.108C85.2614 425.135 87.9294 438.803 88.4834 452.637C88.5082 453.462 88.2395 454.269 87.7251 454.915C87.2107 455.56 86.4839 456.002 85.6742 456.162Z" fill="#6C63FF"/>
</g>
</svg>
