<svg width="802" height="463" viewBox="0 0 802 463" fill="none" xmlns="http://www.w3.org/2000/svg">
<rect width="802" height="463" fill="#D9D8E1"/>
<g id="Pradinis puslapis" clip-path="url(#clip0)">
<rect width="1616" height="776" transform="translate(-714 -216)" fill="white"/>
<g id="wave 1" clip-path="url(#clip1)">
<path id="Vector" d="M-714 479.3L-660.133 463.3C-606.267 447.3 -498.533 415.3 -390.8 394C-283.067 372.3 -175.333 362.3 -67.6 362C40.1333 362.3 147.867 372.3 255.6 388.6C363.333 404.3 471.067 426.3 578.8 436.6C686.533 447.3 794.267 447.3 848.133 447.3H902V607.3H848.133C794.267 607.3 686.533 607.3 578.8 607.3C471.067 607.3 363.333 607.3 255.6 607.3C147.867 607.3 40.1333 607.3 -67.6 607.3C-175.333 607.3 -283.067 607.3 -390.8 607.3C-498.533 607.3 -606.267 607.3 -660.133 607.3H-714V479.3Z" fill="#F3F4F5"/>
</g>
<g id="undraw_team_up_ip2x 1" clip-path="url(#clip2)">
<path id="Vector_2" d="M775.091 28.4471C778.662 28.4471 781.558 25.5518 781.558 21.9802C781.558 18.4086 778.662 15.5133 775.091 15.5133C771.519 15.5133 768.624 18.4086 768.624 21.9802C768.624 25.5518 771.519 28.4471 775.091 28.4471Z" fill="#F2F2F2"/>
<path id="Vector_3" d="M749.317 28.4471C752.889 28.4471 755.784 25.5518 755.784 21.9802C755.784 18.4086 752.889 15.5133 749.317 15.5133C745.746 15.5133 742.851 18.4086 742.851 21.9802C742.851 25.5518 745.746 28.4471 749.317 28.4471Z" fill="#F2F2F2"/>
<path id="Vector_4" d="M723.544 28.4471C727.116 28.4471 730.011 25.5518 730.011 21.9802C730.011 18.4086 727.116 15.5133 723.544 15.5133C719.972 15.5133 717.077 18.4086 717.077 21.9802C717.077 25.5518 719.972 28.4471 723.544 28.4471Z" fill="#F2F2F2"/>
<path id="Vector_5" d="M697.771 28.4471C701.342 28.4471 704.238 25.5518 704.238 21.9802C704.238 18.4086 701.342 15.5133 697.771 15.5133C694.199 15.5133 691.304 18.4086 691.304 21.9802C691.304 25.5518 694.199 28.4471 697.771 28.4471Z" fill="#F2F2F2"/>
<path id="Vector_6" d="M775.091 55.4471C778.662 55.4471 781.558 52.5518 781.558 48.9802C781.558 45.4086 778.662 42.5133 775.091 42.5133C771.519 42.5133 768.624 45.4086 768.624 48.9802C768.624 52.5518 771.519 55.4471 775.091 55.4471Z" fill="#F2F2F2"/>
<path id="Vector_7" d="M749.317 55.4471C752.889 55.4471 755.784 52.5518 755.784 48.9802C755.784 45.4086 752.889 42.5133 749.317 42.5133C745.746 42.5133 742.851 45.4086 742.851 48.9802C742.851 52.5518 745.746 55.4471 749.317 55.4471Z" fill="#F2F2F2"/>
<path id="Vector_8" d="M723.544 55.4471C727.116 55.4471 730.011 52.5518 730.011 48.9802C730.011 45.4086 727.116 42.5133 723.544 42.5133C719.972 42.5133 717.077 45.4086 717.077 48.9802C717.077 52.5518 719.972 55.4471 723.544 55.4471Z" fill="#F2F2F2"/>
<path id="Vector_9" d="M697.771 55.4471C701.342 55.4471 704.238 52.5518 704.238 48.9802C704.238 45.4086 701.342 42.5133 697.771 42.5133C694.199 42.5133 691.304 45.4086 691.304 48.9802C691.304 52.5518 694.199 55.4471 697.771 55.4471Z" fill="#F2F2F2"/>
<path id="Vector_10" d="M775.091 82.4471C778.662 82.4471 781.558 79.5518 781.558 75.9802C781.558 72.4086 778.662 69.5133 775.091 69.5133C771.519 69.5133 768.624 72.4086 768.624 75.9802C768.624 79.5518 771.519 82.4471 775.091 82.4471Z" fill="#F2F2F2"/>
<path id="Vector_11" d="M749.317 82.4471C752.889 82.4471 755.784 79.5518 755.784 75.9802C755.784 72.4086 752.889 69.5133 749.317 69.5133C745.746 69.5133 742.851 72.4086 742.851 75.9802C742.851 79.5518 745.746 82.4471 749.317 82.4471Z" fill="#F2F2F2"/>
<path id="Vector_12" d="M723.544 82.4471C727.116 82.4471 730.011 79.5518 730.011 75.9802C730.011 72.4086 727.116 69.5133 723.544 69.5133C719.972 69.5133 717.077 72.4086 717.077 75.9802C717.077 79.5518 719.972 82.4471 723.544 82.4471Z" fill="#F2F2F2"/>
<path id="Vector_13" d="M697.771 82.4471C701.342 82.4471 704.238 79.5518 704.238 75.9802C704.238 72.4086 701.342 69.5133 697.771 69.5133C694.199 69.5133 691.304 72.4086 691.304 75.9802C691.304 79.5518 694.199 82.4471 697.771 82.4471Z" fill="#F2F2F2"/>
<path id="Vector_14" d="M775.091 109.447C778.662 109.447 781.558 106.552 781.558 102.98C781.558 99.4086 778.662 96.5133 775.091 96.5133C771.519 96.5133 768.624 99.4086 768.624 102.98C768.624 106.552 771.519 109.447 775.091 109.447Z" fill="#F2F2F2"/>
<path id="Vector_15" d="M749.317 109.447C752.889 109.447 755.784 106.552 755.784 102.98C755.784 99.4086 752.889 96.5133 749.317 96.5133C745.746 96.5133 742.851 99.4086 742.851 102.98C742.851 106.552 745.746 109.447 749.317 109.447Z" fill="#F2F2F2"/>
<path id="Vector_16" d="M723.544 109.447C727.116 109.447 730.011 106.552 730.011 102.98C730.011 99.4086 727.116 96.5133 723.544 96.5133C719.972 96.5133 717.077 99.4086 717.077 102.98C717.077 106.552 719.972 109.447 723.544 109.447Z" fill="#F2F2F2"/>
<path id="Vector_17" d="M697.771 109.447C701.342 109.447 704.238 106.552 704.238 102.98C704.238 99.4086 701.342 96.5133 697.771 96.5133C694.199 96.5133 691.304 99.4086 691.304 102.98C691.304 106.552 694.199 109.447 697.771 109.447Z" fill="#F2F2F2"/>
<path id="Vector_18" d="M775.091 136.447C778.662 136.447 781.558 133.552 781.558 129.98C781.558 126.409 778.662 123.513 775.091 123.513C771.519 123.513 768.624 126.409 768.624 129.98C768.624 133.552 771.519 136.447 775.091 136.447Z" fill="#F2F2F2"/>
<path id="Vector_19" d="M749.317 136.447C752.889 136.447 755.784 133.552 755.784 129.98C755.784 126.409 752.889 123.513 749.317 123.513C745.746 123.513 742.851 126.409 742.851 129.98C742.851 133.552 745.746 136.447 749.317 136.447Z" fill="#F2F2F2"/>
<path id="Vector_20" d="M723.544 136.447C727.116 136.447 730.011 133.552 730.011 129.98C730.011 126.409 727.116 123.513 723.544 123.513C719.972 123.513 717.077 126.409 717.077 129.98C717.077 133.552 719.972 136.447 723.544 136.447Z" fill="#F2F2F2"/>
<path id="Vector_21" d="M697.771 136.447C701.342 136.447 704.238 133.552 704.238 129.98C704.238 126.409 701.342 123.513 697.771 123.513C694.199 123.513 691.304 126.409 691.304 129.98C691.304 133.552 694.199 136.447 697.771 136.447Z" fill="#F2F2F2"/>
<path id="Vector_22" d="M775.091 163.447C778.662 163.447 781.558 160.552 781.558 156.98C781.558 153.409 778.662 150.513 775.091 150.513C771.519 150.513 768.624 153.409 768.624 156.98C768.624 160.552 771.519 163.447 775.091 163.447Z" fill="#F2F2F2"/>
<path id="Vector_23" d="M749.317 163.447C752.889 163.447 755.784 160.552 755.784 156.98C755.784 153.409 752.889 150.513 749.317 150.513C745.746 150.513 742.851 153.409 742.851 156.98C742.851 160.552 745.746 163.447 749.317 163.447Z" fill="#F2F2F2"/>
<path id="Vector_24" d="M723.544 163.447C727.116 163.447 730.011 160.552 730.011 156.98C730.011 153.409 727.116 150.513 723.544 150.513C719.972 150.513 717.077 153.409 717.077 156.98C717.077 160.552 719.972 163.447 723.544 163.447Z" fill="#F2F2F2"/>
<path id="Vector_25" d="M697.771 163.447C701.342 163.447 704.238 160.552 704.238 156.98C704.238 153.409 701.342 150.513 697.771 150.513C694.199 150.513 691.304 153.409 691.304 156.98C691.304 160.552 694.199 163.447 697.771 163.447Z" fill="#F2F2F2"/>
<path id="Vector_26" d="M764.083 445.961C768.751 435.877 773.416 425.644 775.442 414.718C777.468 403.793 776.618 391.936 770.815 382.459C765.012 372.983 753.587 366.557 742.683 368.699C733.728 370.458 726.537 377.512 722.327 385.609C718.116 393.706 716.427 402.839 714.79 411.817C714.26 401.617 713.7 391.253 710.312 381.618C706.923 371.982 700.251 363.003 690.742 359.275C681.233 355.546 668.863 358.478 663.852 367.378C656.791 379.916 666.153 397.503 658.034 409.384C656.642 397.467 644.18 388.051 632.335 389.968C620.491 391.884 611.634 404.749 614.071 416.497C615.521 423.487 620.29 429.433 625.992 433.729C631.695 438.025 638.327 443.003 644.887 445.819L764.083 445.961Z" fill="#F2F2F2"/>
<path id="Vector_27" d="M620.289 398.387C629.698 401.676 639.192 405.002 647.782 410.143C655.48 414.751 662.335 420.955 666.664 428.9C669.036 433.162 670.444 437.893 670.79 442.758C670.852 443.776 672.444 443.783 672.382 442.758C671.825 433.697 667.409 425.405 661.295 418.848C654.59 411.658 645.903 406.747 636.933 402.937C631.615 400.678 626.165 398.758 620.713 396.852C619.744 396.514 619.327 398.051 620.289 398.387H620.289Z" fill="white"/>
<path id="Vector_28" d="M674.557 360.854C680.337 370.484 684.966 380.76 688.348 391.47C691.737 402.176 693.872 413.24 694.709 424.438C695.173 430.707 695.223 437 694.861 443.275C694.802 444.298 696.394 444.295 696.452 443.275C697.095 431.961 696.41 420.61 694.412 409.455C692.418 398.301 689.139 387.415 684.643 377.015C682.119 371.173 679.209 365.506 675.931 360.051C675.821 359.876 675.647 359.751 675.447 359.703C675.246 359.654 675.034 359.684 674.856 359.789C674.678 359.893 674.547 360.062 674.491 360.261C674.436 360.46 674.459 360.673 674.557 360.854Z" fill="white"/>
<path id="Vector_29" d="M752.458 369.997C744.282 388.367 738.528 407.722 735.341 427.575C734.446 433.152 733.754 438.756 733.263 444.387C733.174 445.407 734.767 445.401 734.855 444.387C736.588 424.578 740.869 405.075 747.593 386.362C749.482 381.1 751.562 375.913 753.832 370.8C754.244 369.872 752.873 369.062 752.458 369.997Z" fill="white"/>
<path id="Vector_30" d="M414.263 190.543H275.534C273.54 190.541 271.628 189.747 270.218 188.337C268.808 186.927 268.015 185.016 268.013 183.021V7.52142C268.015 5.52731 268.808 3.61553 270.218 2.20547C271.628 0.795424 273.54 0.00226824 275.534 0H414.263C416.257 0.00227091 418.169 0.795429 419.579 2.20549C420.989 3.61555 421.782 5.52735 421.784 7.52147V183.021C421.782 185.016 420.989 186.927 419.579 188.337C418.169 189.747 416.257 190.541 414.263 190.543ZM275.534 1.67148C273.983 1.67321 272.496 2.2901 271.399 3.38681C270.303 4.48352 269.686 5.97049 269.684 7.52147V183.021C269.686 184.572 270.303 186.059 271.399 187.156C272.496 188.253 273.983 188.87 275.534 188.871H414.263C415.814 188.87 417.301 188.253 418.397 187.156C419.494 186.059 420.111 184.572 420.113 183.021V7.52147C420.111 5.97049 419.494 4.48354 418.397 3.38683C417.301 2.29011 415.814 1.67322 414.263 1.67148H275.534Z" fill="#3F3D56"/>
<path id="Vector_31" d="M333.358 84.3584H302.821C301.824 84.3573 300.868 83.9607 300.163 83.2557C299.458 82.5506 299.062 81.5947 299.061 80.5977V44.562C299.062 43.5649 299.458 42.609 300.163 41.904C300.868 41.199 301.824 40.8024 302.821 40.8013H333.358C334.355 40.8024 335.311 41.199 336.016 41.904C336.721 42.609 337.118 43.5649 337.119 44.562V80.5977C337.118 81.5947 336.721 82.5506 336.016 83.2557C335.311 83.9607 334.355 84.3573 333.358 84.3584Z" fill="#6C63FF"/>
<path id="Vector_32" d="M392.694 101.073H362.157C361.16 101.072 360.204 100.675 359.499 99.97C358.794 99.265 358.397 98.3091 358.396 97.312V61.2763C358.397 60.2793 358.794 59.3234 359.499 58.6183C360.204 57.9133 361.16 57.5167 362.157 57.5156H392.694C393.691 57.5167 394.647 57.9133 395.352 58.6183C396.057 59.3234 396.453 60.2793 396.454 61.2763V97.312C396.453 98.3091 396.057 99.265 395.352 99.97C394.647 100.675 393.691 101.072 392.694 101.073Z" fill="#CCCCCC"/>
<path id="Vector_33" d="M345.058 152.051H314.521C313.524 152.05 312.568 151.654 311.863 150.949C311.158 150.244 310.762 149.288 310.76 148.291V112.255C310.762 111.258 311.158 110.302 311.863 109.597C312.568 108.892 313.524 108.495 314.521 108.494H345.058C346.055 108.495 347.011 108.892 347.716 109.597C348.421 110.302 348.818 111.258 348.819 112.255V148.291C348.818 149.288 348.421 150.244 347.716 150.949C347.011 151.654 346.055 152.05 345.058 152.051Z" fill="#FF6584"/>
<path id="Vector_34" d="M115.931 18.2872C119.502 18.2872 122.398 15.3918 122.398 11.8203C122.398 8.24872 119.502 5.35339 115.931 5.35339C112.359 5.35339 109.464 8.24872 109.464 11.8203C109.464 15.3918 112.359 18.2872 115.931 18.2872Z" fill="#F2F2F2"/>
<path id="Vector_35" d="M115.931 44.0605C119.502 44.0605 122.398 41.1652 122.398 37.5936C122.398 34.022 119.502 31.1267 115.931 31.1267C112.359 31.1267 109.464 34.022 109.464 37.5936C109.464 41.1652 112.359 44.0605 115.931 44.0605Z" fill="#F2F2F2"/>
<path id="Vector_36" d="M115.931 69.8338C119.502 69.8338 122.398 66.9385 122.398 63.3669C122.398 59.7953 119.502 56.9 115.931 56.9C112.359 56.9 109.464 59.7953 109.464 63.3669C109.464 66.9385 112.359 69.8338 115.931 69.8338Z" fill="#F2F2F2"/>
<path id="Vector_37" d="M115.931 95.6071C119.502 95.6071 122.398 92.7118 122.398 89.1402C122.398 85.5687 119.502 82.6733 115.931 82.6733C112.359 82.6733 109.464 85.5687 109.464 89.1402C109.464 92.7118 112.359 95.6071 115.931 95.6071Z" fill="#F2F2F2"/>
<path id="Vector_38" d="M142.931 18.2872C146.502 18.2872 149.398 15.3918 149.398 11.8203C149.398 8.24872 146.502 5.35339 142.931 5.35339C139.359 5.35339 136.464 8.24872 136.464 11.8203C136.464 15.3918 139.359 18.2872 142.931 18.2872Z" fill="#F2F2F2"/>
<path id="Vector_39" d="M142.931 44.0605C146.502 44.0605 149.398 41.1652 149.398 37.5936C149.398 34.022 146.502 31.1267 142.931 31.1267C139.359 31.1267 136.464 34.022 136.464 37.5936C136.464 41.1652 139.359 44.0605 142.931 44.0605Z" fill="#F2F2F2"/>
<path id="Vector_40" d="M142.931 69.8338C146.502 69.8338 149.398 66.9385 149.398 63.3669C149.398 59.7953 146.502 56.9 142.931 56.9C139.359 56.9 136.464 59.7953 136.464 63.3669C136.464 66.9385 139.359 69.8338 142.931 69.8338Z" fill="#F2F2F2"/>
<path id="Vector_41" d="M142.931 95.6071C146.502 95.6071 149.398 92.7118 149.398 89.1402C149.398 85.5687 146.502 82.6733 142.931 82.6733C139.359 82.6733 136.464 85.5687 136.464 89.1402C136.464 92.7118 139.359 95.6071 142.931 95.6071Z" fill="#F2F2F2"/>
<path id="Vector_42" d="M169.931 18.2872C173.502 18.2872 176.398 15.3918 176.398 11.8203C176.398 8.24872 173.502 5.35339 169.931 5.35339C166.359 5.35339 163.464 8.24872 163.464 11.8203C163.464 15.3918 166.359 18.2872 169.931 18.2872Z" fill="#F2F2F2"/>
<path id="Vector_43" d="M169.931 44.0605C173.502 44.0605 176.398 41.1652 176.398 37.5936C176.398 34.022 173.502 31.1267 169.931 31.1267C166.359 31.1267 163.464 34.022 163.464 37.5936C163.464 41.1652 166.359 44.0605 169.931 44.0605Z" fill="#F2F2F2"/>
<path id="Vector_44" d="M169.931 69.8338C173.502 69.8338 176.398 66.9385 176.398 63.3669C176.398 59.7953 173.502 56.9 169.931 56.9C166.359 56.9 163.464 59.7953 163.464 63.3669C163.464 66.9385 166.359 69.8338 169.931 69.8338Z" fill="#F2F2F2"/>
<path id="Vector_45" d="M169.931 95.6071C173.502 95.6071 176.398 92.7118 176.398 89.1402C176.398 85.5687 173.502 82.6733 169.931 82.6733C166.359 82.6733 163.464 85.5687 163.464 89.1402C163.464 92.7118 166.359 95.6071 169.931 95.6071Z" fill="#F2F2F2"/>
<path id="Vector_46" d="M196.931 18.2872C200.502 18.2872 203.398 15.3918 203.398 11.8203C203.398 8.24872 200.502 5.35339 196.931 5.35339C193.359 5.35339 190.464 8.24872 190.464 11.8203C190.464 15.3918 193.359 18.2872 196.931 18.2872Z" fill="#F2F2F2"/>
<path id="Vector_47" d="M196.931 44.0605C200.502 44.0605 203.398 41.1652 203.398 37.5936C203.398 34.022 200.502 31.1267 196.931 31.1267C193.359 31.1267 190.464 34.022 190.464 37.5936C190.464 41.1652 193.359 44.0605 196.931 44.0605Z" fill="#F2F2F2"/>
<path id="Vector_48" d="M196.931 69.8338C200.502 69.8338 203.398 66.9385 203.398 63.3669C203.398 59.7953 200.502 56.9 196.931 56.9C193.359 56.9 190.464 59.7953 190.464 63.3669C190.464 66.9385 193.359 69.8338 196.931 69.8338Z" fill="#F2F2F2"/>
<path id="Vector_49" d="M196.931 95.6071C200.502 95.6071 203.398 92.7118 203.398 89.1402C203.398 85.5687 200.502 82.6733 196.931 82.6733C193.359 82.6733 190.464 85.5687 190.464 89.1402C190.464 92.7118 193.359 95.6071 196.931 95.6071Z" fill="#F2F2F2"/>
<path id="Vector_50" d="M223.931 18.2872C227.502 18.2872 230.398 15.3918 230.398 11.8203C230.398 8.24872 227.502 5.35339 223.931 5.35339C220.359 5.35339 217.464 8.24872 217.464 11.8203C217.464 15.3918 220.359 18.2872 223.931 18.2872Z" fill="#F2F2F2"/>
<path id="Vector_51" d="M223.931 44.0605C227.502 44.0605 230.398 41.1652 230.398 37.5936C230.398 34.022 227.502 31.1267 223.931 31.1267C220.359 31.1267 217.464 34.022 217.464 37.5936C217.464 41.1652 220.359 44.0605 223.931 44.0605Z" fill="#F2F2F2"/>
<path id="Vector_52" d="M223.931 69.8338C227.502 69.8338 230.398 66.9385 230.398 63.3669C230.398 59.7953 227.502 56.9 223.931 56.9C220.359 56.9 217.464 59.7953 217.464 63.3669C217.464 66.9385 220.359 69.8338 223.931 69.8338Z" fill="#F2F2F2"/>
<path id="Vector_53" d="M223.931 95.6071C227.502 95.6071 230.398 92.7118 230.398 89.1402C230.398 85.5687 227.502 82.6733 223.931 82.6733C220.359 82.6733 217.464 85.5687 217.464 89.1402C217.464 92.7118 220.359 95.6071 223.931 95.6071Z" fill="#F2F2F2"/>
<path id="Vector_54" d="M250.931 18.2872C254.502 18.2872 257.398 15.3918 257.398 11.8203C257.398 8.24872 254.502 5.35339 250.931 5.35339C247.359 5.35339 244.464 8.24872 244.464 11.8203C244.464 15.3918 247.359 18.2872 250.931 18.2872Z" fill="#F2F2F2"/>
<path id="Vector_55" d="M250.931 44.0605C254.502 44.0605 257.398 41.1652 257.398 37.5936C257.398 34.022 254.502 31.1267 250.931 31.1267C247.359 31.1267 244.464 34.022 244.464 37.5936C244.464 41.1652 247.359 44.0605 250.931 44.0605Z" fill="#F2F2F2"/>
<path id="Vector_56" d="M250.931 69.8338C254.502 69.8338 257.398 66.9385 257.398 63.3669C257.398 59.7953 254.502 56.9 250.931 56.9C247.359 56.9 244.464 59.7953 244.464 63.3669C244.464 66.9385 247.359 69.8338 250.931 69.8338Z" fill="#F2F2F2"/>
<path id="Vector_57" d="M250.931 95.6071C254.502 95.6071 257.398 92.7118 257.398 89.1402C257.398 85.5687 254.502 82.6733 250.931 82.6733C247.359 82.6733 244.464 85.5687 244.464 89.1402C244.464 92.7118 247.359 95.6071 250.931 95.6071Z" fill="#F2F2F2"/>
<path id="Vector_58" d="M181.045 454.434C204.248 454.434 223.057 435.624 223.057 412.421C223.057 389.218 204.248 370.409 181.045 370.409C157.842 370.409 139.032 389.218 139.032 412.421C139.032 435.624 157.842 454.434 181.045 454.434Z" fill="#2F2E41"/>
<path id="Vector_59" d="M165.069 440.024L144.622 450.263L150.337 461.675L170.784 451.436L165.069 440.024Z" fill="#2F2E41"/>
<path id="Vector_60" d="M153.033 460.517C154.245 458.678 151.253 454.566 146.349 451.333C141.445 448.099 136.486 446.969 135.273 448.808C134.061 450.647 137.053 454.759 141.957 457.992C146.862 461.226 151.82 462.356 153.033 460.517Z" fill="#2F2E41"/>
<path id="Vector_61" d="M197.021 440.024L191.306 451.436L211.753 461.675L217.468 450.263L197.021 440.024Z" fill="#2F2E41"/>
<path id="Vector_62" d="M220.132 457.992C225.036 454.759 228.029 450.647 226.816 448.808C225.604 446.969 220.645 448.099 215.741 451.333C210.837 454.566 207.844 458.678 209.057 460.517C210.269 462.356 215.228 461.226 220.132 457.992Z" fill="#2F2E41"/>
<path id="Vector_63" d="M178.104 416.503C186.034 416.503 192.462 410.075 192.462 402.145C192.462 394.215 186.034 387.786 178.104 387.786C170.173 387.786 163.745 394.215 163.745 402.145C163.745 410.075 170.173 416.503 178.104 416.503Z" fill="white"/>
<path id="Vector_64" d="M169.696 402.492C174.819 398.59 180.61 404.381 176.708 409.504C171.585 413.406 165.794 407.615 169.696 402.492Z" fill="#3F3D56"/>
<path id="Vector_65" d="M214.187 366.716C214.818 351.163 201.413 337.989 184.246 337.291C167.078 336.594 152.649 348.637 152.017 364.191C151.385 379.745 163.319 383.278 180.487 383.976C197.654 384.673 213.555 382.27 214.187 366.716Z" fill="#CCCCCC"/>
<path id="Vector_66" d="M238.404 434.42C241.167 432.048 237.281 422.989 229.724 414.186C222.168 405.384 213.801 400.171 211.038 402.543C208.275 404.915 212.16 413.975 219.717 422.777C227.274 431.58 235.64 436.793 238.404 434.42Z" fill="#2F2E41"/>
<path id="Vector_67" d="M142.49 422.777C150.047 413.974 153.933 404.915 151.169 402.543C148.406 400.171 140.039 405.384 132.483 414.186C124.926 422.989 121.04 432.048 123.803 434.42C126.567 436.793 134.933 431.58 142.49 422.777Z" fill="#2F2E41"/>
<path id="Vector_68" d="M192.584 428.978C192.81 430.215 192.79 431.485 192.526 432.714C192.261 433.944 191.757 435.109 191.041 436.144C190.326 437.179 189.414 438.062 188.357 438.744C187.3 439.426 186.119 439.893 184.882 440.118C183.644 440.343 182.375 440.323 181.145 440.057C179.916 439.791 178.751 439.286 177.717 438.57C176.683 437.853 175.8 436.941 175.119 435.883C174.438 434.826 173.972 433.644 173.748 432.407L173.745 432.388C172.803 427.186 176.825 425.345 182.027 424.403C187.23 423.462 191.642 423.776 192.584 428.978Z" fill="white"/>
<path id="Vector_69" d="M625.297 327.323H569.287C569.287 327.986 569.023 328.622 568.555 329.091C568.086 329.56 567.45 329.823 566.787 329.823H511.807C511.031 330.408 510.323 331.079 509.697 331.823C507.818 334.065 506.791 336.898 506.797 339.823V341.823C506.798 345.138 508.115 348.317 510.459 350.661C512.803 353.005 515.982 354.322 519.297 354.323H625.297C628.611 354.32 631.789 353.003 634.133 350.659C636.476 348.315 637.794 345.138 637.797 341.823V339.823C637.792 336.51 636.474 333.333 634.131 330.99C631.787 328.646 628.611 327.328 625.297 327.323Z" fill="#3F3D56"/>
<path id="Vector_70" d="M579.292 353.827H566.292V445.827H579.292V353.827Z" fill="#3F3D56"/>
<path id="Vector_71" d="M616.292 445.37C616.292 446.775 596.593 445.913 572.292 445.913C547.991 445.913 528.292 446.775 528.292 445.37C528.292 443.965 547.991 432.827 572.292 432.827C596.593 432.827 616.292 443.966 616.292 445.37Z" fill="#3F3D56"/>
<path id="Vector_72" d="M622.847 330.203L620.667 316.563C620.391 314.844 619.444 313.305 618.034 312.283C616.624 311.262 614.867 310.841 613.147 311.113L590.657 314.703L552.137 320.853L539.607 322.853H566.787C567.45 322.854 568.086 323.117 568.555 323.586C569.023 324.055 569.287 324.69 569.287 325.353V327.323C569.287 327.986 569.023 328.622 568.555 329.091C568.086 329.56 567.45 329.823 566.787 329.823H497.617C496.652 330.275 495.816 330.963 495.187 331.823C494.655 332.523 494.271 333.323 494.058 334.176C493.845 335.029 493.807 335.916 493.947 336.783L494.567 340.663L495.317 345.373L496.127 350.433C496.402 352.148 497.347 353.684 498.753 354.704C500.159 355.723 501.911 356.144 503.627 355.873L521.497 353.023L573.037 344.793L617.397 337.713C619.112 337.434 620.648 336.488 621.669 335.081C622.69 333.674 623.113 331.921 622.847 330.203Z" fill="#6C63FF"/>
<path id="Vector_73" d="M520.127 331.823C519.47 330.95 518.598 330.261 517.597 329.823H498.477C497.471 330.259 496.596 330.948 495.937 331.823C495.047 332.963 494.565 334.368 494.567 335.813V412.023C494.569 413.76 495.26 415.424 496.488 416.652C497.716 417.88 499.381 418.571 501.117 418.573H514.947C516.684 418.571 518.348 417.88 519.576 416.652C520.804 415.424 521.495 413.76 521.497 412.023V335.813C521.498 334.368 521.016 332.963 520.127 331.823Z" fill="#6C63FF"/>
<path id="Vector_74" d="M561.747 202.023L561.617 201.853L553.037 191.283C552.58 190.716 552.029 190.232 551.407 189.853C551.078 189.63 550.722 189.449 550.347 189.313C549.8 189.094 549.224 188.953 548.637 188.893C548.245 188.852 547.85 188.845 547.457 188.873C547.449 188.874 547.442 188.878 547.437 188.883C546.111 188.981 544.847 189.484 543.817 190.323L526.207 204.603L503.577 222.963L469.807 250.363L467.347 252.363H510.077L512.547 250.363L520.717 243.733L521.297 243.273L560.757 211.263L560.787 211.243C561.599 210.59 562.241 209.749 562.657 208.793C562.932 208.167 563.107 207.503 563.177 206.823C563.268 205.968 563.188 205.104 562.943 204.28C562.698 203.456 562.291 202.689 561.747 202.023Z" fill="#6C63FF"/>
<path id="Vector_75" d="M561.617 201.853C561.065 199.159 559.841 196.647 558.057 194.553C556.279 192.443 553.99 190.825 551.407 189.853C551.007 189.703 550.617 189.563 550.217 189.453C549.315 189.185 548.391 188.991 547.457 188.873C547.449 188.874 547.442 188.878 547.437 188.883C543.23 188.397 538.998 189.566 535.637 192.143L505.177 215.423C504.53 216.002 504.007 216.704 503.637 217.49C503.268 218.275 503.06 219.126 503.027 219.993C502.98 221.012 503.168 222.029 503.577 222.963C503.677 223.173 503.787 223.383 503.907 223.583C504.14 223.989 504.422 224.366 504.747 224.703L509.627 230.183L520.977 242.913L521.297 243.273L522.027 244.103C522.608 244.74 523.309 245.256 524.09 245.622C524.871 245.987 525.716 246.195 526.577 246.233C527.438 246.271 528.298 246.139 529.108 245.844C529.918 245.549 530.662 245.096 531.297 244.513L557.567 216.293C558.932 214.828 560.013 213.123 560.757 211.263C561.957 208.278 562.256 205.007 561.617 201.853Z" fill="#2F2E41"/>
<path id="Vector_76" d="M573.23 165.643C600.912 165.643 623.352 143.202 623.352 115.521C623.352 87.8389 600.912 65.3984 573.23 65.3984C545.549 65.3984 523.108 87.8389 523.108 115.521C523.108 143.202 545.549 165.643 573.23 165.643Z" fill="#6C63FF"/>
<path id="Vector_77" d="M592.027 323.303L590.657 314.703L589.847 309.653C589.571 307.937 588.625 306.4 587.217 305.38C585.809 304.36 584.054 303.941 582.337 304.213L545.907 310.023L536.027 311.603L534.027 311.923V322.853H566.787C567.45 322.854 568.086 323.117 568.555 323.586C569.023 324.055 569.287 324.691 569.287 325.353V327.323C569.287 327.986 569.023 328.622 568.555 329.091C568.086 329.56 567.45 329.823 566.787 329.823H463.117C463.117 329.843 463.127 329.863 463.127 329.883L463.747 333.763L465.307 343.523C465.583 345.238 466.527 346.774 467.933 347.794C469.339 348.813 471.092 349.234 472.807 348.963L490.677 346.113L494.567 345.493L495.317 345.373L521.497 341.193L539.307 338.343L567.567 333.833L567.987 333.763L586.577 330.803C588.293 330.529 589.83 329.585 590.851 328.179C591.873 326.773 592.296 325.02 592.027 323.303Z" fill="#6C63FF"/>
<path id="Vector_78" d="M641.447 286.523C641.447 327.383 637.297 351.823 573.297 344.823C573.207 344.813 573.127 344.803 573.037 344.793C561.622 343.666 550.333 341.507 539.307 338.343C533.577 336.67 528.008 334.488 522.667 331.823C521.407 331.183 520.197 330.513 519.007 329.823H566.787C567.45 329.823 568.086 329.56 568.555 329.091C569.023 328.622 569.287 327.986 569.287 327.323V325.353C569.287 324.69 569.023 324.055 568.555 323.586C568.086 323.117 567.45 322.854 566.787 322.853H534.027V259.693C534.025 257.75 533.251 255.887 531.877 254.513C530.503 253.139 528.64 252.366 526.697 252.363H528.047C528.277 251.703 528.507 251.033 528.757 250.363C531.187 243.613 530.948 238.304 534.398 231.694C539.138 222.574 539.168 213.404 545.398 205.694C550.038 199.964 535.827 193.713 541.047 189.413C551.077 181.133 561.997 176.013 573.077 176.013C613.937 176.013 641.447 245.663 641.447 286.523Z" fill="#2F2E41"/>
<path id="Vector_79" d="M574.284 134.098L574.336 132.224C570.851 132.128 567.779 131.909 565.471 130.223C564.816 129.717 564.278 129.077 563.894 128.345C563.509 127.613 563.286 126.807 563.241 125.982C563.2 125.477 563.276 124.97 563.464 124.5C563.651 124.03 563.944 123.609 564.32 123.271C565.853 121.977 568.318 122.396 570.115 123.22L571.665 123.93L568.693 102.212L566.838 102.466L569.366 120.94C568.331 120.557 567.216 120.438 566.124 120.595C565.031 120.752 563.996 121.18 563.111 121.84C562.516 122.36 562.049 123.01 561.747 123.74C561.445 124.47 561.315 125.259 561.369 126.047C561.424 127.157 561.72 128.241 562.238 129.223C562.756 130.206 563.482 131.063 564.366 131.735C567.332 133.903 571.186 134.011 574.284 134.098Z" fill="#2F2E41"/>
<path id="Vector_80" d="M557.66 104.059H547.573V105.932H557.66V104.059Z" fill="#2F2E41"/>
<path id="Vector_81" d="M589.502 104.059H579.414V105.932H589.502V104.059Z" fill="#2F2E41"/>
<path id="Vector_82" d="M603.027 216.353L599.057 213.593L591.667 208.463C590.238 207.475 588.476 207.094 586.766 207.404C585.056 207.713 583.539 208.687 582.547 210.113L558.457 244.783L536.027 277.063L534.027 279.943V322.853H534.207C535.766 322.699 537.218 321.989 538.297 320.853C538.529 320.615 538.74 320.358 538.927 320.083L545.907 310.023L563.157 285.193L581.037 259.473L582.737 257.023L604.657 225.473C604.777 225.306 604.887 225.133 604.987 224.953C605.087 224.782 605.177 224.605 605.257 224.423C605.886 223.03 606.007 221.46 605.6 219.986C605.193 218.512 604.283 217.227 603.027 216.353Z" fill="#6C63FF"/>
<path id="Vector_83" d="M603.097 202.633C602.39 202.169 601.648 201.761 600.877 201.413C597.461 199.848 593.609 199.506 589.971 200.446C586.332 201.385 583.128 203.549 580.897 206.573L558.137 237.433C557.68 238.168 557.374 238.987 557.236 239.841C557.098 240.695 557.131 241.568 557.334 242.41C557.537 243.251 557.905 244.044 558.417 244.741C558.929 245.439 559.575 246.028 560.317 246.473L581.037 259.473L581.297 259.633L582.337 260.283C583.824 261.182 585.608 261.456 587.296 261.044C588.985 260.631 590.441 259.567 591.347 258.083L607.417 226.183L607.687 225.653L607.697 225.643L608.687 223.653C610.492 220.073 610.92 215.955 609.89 212.08C608.86 208.205 606.442 204.844 603.097 202.633Z" fill="#2F2E41"/>
<path id="Vector_84" d="M463.747 329.823V405.113C463.75 406.85 464.44 408.514 465.668 409.742C466.896 410.97 468.561 411.661 470.297 411.663H484.127C485.863 411.661 487.528 410.97 488.756 409.742C489.984 408.514 490.675 406.85 490.677 405.113V329.823H463.747Z" fill="#6C63FF"/>
<path id="Vector_85" d="M566.787 320.853H536.027V259.693C536.025 257.22 535.041 254.848 533.292 253.099C531.542 251.35 529.171 250.366 526.697 250.363H412.627C410.152 250.364 407.778 251.347 406.027 253.096C404.276 254.845 403.29 257.218 403.287 259.693V322.493C403.29 324.969 404.276 327.341 406.027 329.091C407.778 330.84 410.152 331.823 412.627 331.823H566.787C566.947 331.823 567.097 331.813 567.247 331.803C567.387 331.793 567.527 331.763 567.667 331.743C568.687 331.537 569.605 330.984 570.265 330.179C570.925 329.373 571.286 328.365 571.287 327.323V325.353C571.287 324.16 570.813 323.015 569.969 322.171C569.125 321.328 567.981 320.853 566.787 320.853ZM566.787 329.823H412.627C410.682 329.823 408.817 329.05 407.441 327.676C406.065 326.302 405.29 324.438 405.287 322.493V259.693C405.29 257.749 406.065 255.885 407.441 254.511C408.817 253.136 410.682 252.364 412.627 252.363H526.697C528.64 252.366 530.503 253.139 531.877 254.513C533.251 255.887 534.024 257.75 534.027 259.693V322.853H566.787C567.45 322.854 568.086 323.117 568.555 323.586C569.023 324.055 569.287 324.69 569.287 325.353V327.323C569.287 327.986 569.023 328.622 568.555 329.091C568.086 329.56 567.45 329.823 566.787 329.823Z" fill="#3F3D56"/>
<path id="Vector_86" d="M469.658 298.785C473.905 298.785 477.348 295.342 477.348 291.094C477.348 286.847 473.905 283.404 469.658 283.404C465.411 283.404 461.968 286.847 461.968 291.094C461.968 295.342 465.411 298.785 469.658 298.785Z" fill="#6C63FF"/>
<path id="Vector_87" d="M535.997 321.913H533.997V330.913H535.997V321.913Z" fill="#3F3D56"/>
<path id="Vector_88" d="M226.554 260.36C230.8 249.251 231.415 239.165 227.927 237.832C224.44 236.499 218.171 244.424 213.924 255.533C209.678 266.642 209.063 276.728 212.551 278.061C216.038 279.394 222.308 271.469 226.554 260.36Z" fill="#2F2E41"/>
<path id="Vector_89" d="M222.943 297.368C226.753 273.889 210.809 251.768 187.33 247.958C163.852 244.148 141.731 260.092 137.921 283.57C134.111 307.049 150.055 329.17 173.533 332.98C197.012 336.79 219.133 320.846 222.943 297.368Z" fill="#2F2E41"/>
<path id="Vector_90" d="M173.89 324.269H160.806V347.71H173.89V324.269Z" fill="#2F2E41"/>
<path id="Vector_91" d="M200.058 324.269H186.974V347.71H200.058V324.269Z" fill="#2F2E41"/>
<path id="Vector_92" d="M171.71 352.072C177.731 352.072 182.613 350.241 182.613 347.983C182.613 345.725 177.731 343.894 171.71 343.894C165.688 343.894 160.806 345.725 160.806 347.983C160.806 350.241 165.688 352.072 171.71 352.072Z" fill="#2F2E41"/>
<path id="Vector_93" d="M197.877 351.526C203.899 351.526 208.78 349.696 208.78 347.438C208.78 345.18 203.899 343.349 197.877 343.349C191.855 343.349 186.974 345.18 186.974 347.438C186.974 349.696 191.855 351.526 197.877 351.526Z" fill="#2F2E41"/>
<path id="Vector_94" d="M181.955 294.279C190.08 294.04 196.474 287.259 196.235 279.133C195.996 271.008 189.216 264.614 181.09 264.853C172.964 265.092 166.571 271.872 166.809 279.998C167.048 288.124 173.829 294.517 181.955 294.279Z" fill="white"/>
<path id="Vector_95" d="M181.522 284.472C184.232 284.472 186.429 282.275 186.429 279.566C186.429 276.856 184.232 274.659 181.522 274.659C178.812 274.659 176.616 276.856 176.616 279.566C176.616 282.275 178.812 284.472 181.522 284.472Z" fill="#3F3D56"/>
<path id="Vector_96" d="M138.655 250.418C135.178 234.844 146.294 219.107 163.484 215.269C180.674 211.43 197.428 220.944 200.906 236.518C204.383 252.091 192.991 257.835 175.801 261.674C158.611 265.512 142.133 265.991 138.655 250.418Z" fill="#6C63FF"/>
<path id="Vector_97" d="M151.38 279.713C152.98 276.34 145.566 269.474 134.821 264.377C124.075 259.281 114.067 257.884 112.467 261.258C110.868 264.631 118.281 271.497 129.027 276.593C139.772 281.69 149.78 283.086 151.38 279.713Z" fill="#2F2E41"/>
<path id="Vector_98" d="M159.277 306.006C159.277 310.221 170.131 318.544 182.174 318.544C194.217 318.544 205.509 306.677 205.509 302.462C205.509 298.247 194.217 303.28 182.174 303.28C170.131 303.28 159.277 301.791 159.277 306.006Z" fill="white"/>
<path id="Vector_99" d="M263.543 281.238L231.842 287.426C231.328 287.528 230.799 287.511 230.293 287.378C229.786 287.244 229.318 286.996 228.922 286.654C228.518 286.307 228.198 285.873 227.987 285.384C227.777 284.896 227.68 284.365 227.705 283.834C228.246 270.834 225.719 257.89 220.329 246.048C220.106 245.565 219.996 245.037 220.008 244.505C220.019 243.973 220.152 243.45 220.396 242.977C220.634 242.511 220.976 242.105 221.394 241.791C221.813 241.477 222.297 241.262 222.811 241.163L254.513 234.975C255.323 234.819 256.163 234.955 256.882 235.36C257.602 235.764 258.154 236.411 258.441 237.185C263.131 250.212 265.799 263.879 266.353 277.714C266.377 278.539 266.109 279.346 265.594 279.991C265.08 280.636 264.353 281.078 263.543 281.238Z" fill="#FF6584"/>
<path id="Vector_100" d="M124.543 310.238L92.8418 316.426C92.3284 316.528 91.7985 316.511 91.2925 316.378C90.7865 316.244 90.3177 315.996 89.9218 315.654C89.5178 315.307 89.1982 314.873 88.9874 314.384C88.7765 313.896 88.68 313.365 88.7051 312.834C89.2459 299.834 86.7191 286.89 81.3291 275.048C81.106 274.565 80.9961 274.037 81.0077 273.505C81.0193 272.973 81.1521 272.45 81.3961 271.977C81.6342 271.511 81.9755 271.105 82.3941 270.791C82.8126 270.477 83.2974 270.262 83.8114 270.163L115.513 263.975C116.323 263.819 117.163 263.955 117.882 264.36C118.602 264.764 119.154 265.411 119.441 266.185C124.131 279.212 126.799 292.879 127.353 306.714C127.377 307.538 127.109 308.346 126.594 308.991C126.08 309.636 125.353 310.078 124.543 310.238Z" fill="#CCCCCC"/>
<path id="Vector_101" d="M587.653 80.3321C578.628 84.3604 568.39 84.7163 559.108 81.3243C552.301 78.7149 546.403 74.178 542.135 68.2688C537.867 62.3597 535.414 55.3345 535.076 48.053L532.819 49.3482L542.335 56.0437C542.534 56.158 542.756 56.2254 542.985 56.2408C543.213 56.2563 543.443 56.2194 543.655 56.133C543.868 56.0466 544.057 55.9129 544.211 55.7421C544.364 55.5713 544.476 55.3679 544.538 55.1473C545.207 52.4694 546.42 49.9582 548.103 47.7704C549.786 45.5826 551.901 43.7652 554.318 42.4318C559.617 39.4766 565.777 38.4518 571.747 39.5325C584.111 41.5382 595.242 49.7809 602.484 59.776C606.437 65.2136 609.365 71.3264 611.126 77.8145C611.242 78.1859 611.498 78.4976 611.84 78.6838C612.181 78.8701 612.582 78.9164 612.957 78.813C613.332 78.7095 613.653 78.4645 613.851 78.1294C614.049 77.7944 614.109 77.3955 614.018 77.017C610.569 64.4038 602.989 53.3118 592.491 45.5147C581.746 37.5359 566.703 32.7134 554.064 39.1542C548.048 42.2197 543.152 47.6771 541.645 54.3498L543.849 53.4533L534.333 46.7578C534.105 46.6275 533.846 46.5591 533.583 46.5594C533.32 46.5598 533.062 46.6288 532.834 46.7597C532.606 46.8905 532.416 47.0787 532.283 47.3056C532.15 47.5324 532.079 47.7901 532.076 48.053C532.547 58.1582 536.731 67.7341 543.826 74.9451C551.242 82.3567 561.276 86.5537 571.76 86.6296C577.765 86.6956 583.71 85.4296 589.167 82.9225C590.92 82.1196 589.397 79.5331 587.653 80.3321Z" fill="#2F2E41"/>
<path id="Vector_102" d="M166.674 456.162L134.973 462.35C134.46 462.452 133.93 462.435 133.424 462.301C132.918 462.167 132.449 461.92 132.053 461.577C131.649 461.231 131.329 460.797 131.118 460.308C130.908 459.819 130.811 459.289 130.836 458.757C131.377 445.758 128.85 432.813 123.46 420.971C123.237 420.488 123.127 419.961 123.139 419.428C123.15 418.896 123.283 418.374 123.527 417.901C123.765 417.435 124.107 417.029 124.525 416.715C124.944 416.4 125.428 416.186 125.943 416.087L157.644 409.899C158.454 409.742 159.294 409.879 160.013 410.283C160.733 410.688 161.285 411.334 161.572 412.108C166.262 425.135 168.93 438.803 169.484 452.637C169.508 453.462 169.24 454.269 168.725 454.915C168.211 455.56 167.484 456.002 166.674 456.162Z" fill="#6C63FF"/>
</g>
</g>
<defs>
<clipPath id="clip0">
<rect width="1616" height="776" fill="white" transform="translate(-714 -216)"/>
</clipPath>
<clipPath id="clip1">
<rect width="1616" height="320" fill="white" transform="translate(-714 240)"/>
</clipPath>
<clipPath id="clip2">
<rect width="802" height="462.415" fill="white"/>
</clipPath>
</defs>
</svg>
