<svg width="264" height="256" viewBox="0 0 264 256" fill="none" xmlns="http://www.w3.org/2000/svg">
<g id="padarai6">
<path id="Vector" d="M62.1395 255.058C68.1611 255.058 73.0426 253.227 73.0426 250.969C73.0426 248.711 68.1611 246.88 62.1395 246.88C56.1178 246.88 51.2363 248.711 51.2363 250.969C51.2363 253.227 56.1178 255.058 62.1395 255.058Z" fill="#2F2E41"/>
<path id="Vector_2" d="M88.3065 254.512C94.3281 254.512 99.2096 252.682 99.2096 250.424C99.2096 248.166 94.3281 246.335 88.3065 246.335C82.2848 246.335 77.4033 248.166 77.4033 250.424C77.4033 252.682 82.2848 254.512 88.3065 254.512Z" fill="#2F2E41"/>
<path id="Vector_3" d="M123.045 185.79C133.348 179.85 140.189 172.413 138.324 169.178C136.46 165.944 126.596 168.137 116.292 174.076C105.989 180.016 99.1483 187.453 101.013 190.688C102.878 193.922 112.742 191.729 123.045 185.79Z" fill="#2F2E41"/>
<path id="Vector_4" d="M113.372 200.354C117.182 176.875 101.238 154.754 77.7597 150.944C54.2814 147.134 32.1598 163.078 28.3498 186.556C24.5398 210.035 40.4841 232.156 63.9624 235.966C87.4408 239.776 109.562 223.832 113.372 200.354Z" fill="#2F2E41"/>
<path id="Vector_5" d="M64.3201 227.255H51.2363V250.696H64.3201V227.255Z" fill="#2F2E41"/>
<path id="Vector_6" d="M90.4871 227.255H77.4033V250.696H90.4871V227.255Z" fill="#2F2E41"/>
<path id="Vector_7" d="M71.9516 197.271C80.0808 197.271 86.6709 190.681 86.6709 182.552C86.6709 174.423 80.0808 167.833 71.9516 167.833C63.8224 167.833 57.2324 174.423 57.2324 182.552C57.2324 190.681 63.8224 197.271 71.9516 197.271Z" fill="white"/>
<path id="Vector_8" d="M71.9518 187.458C74.6616 187.458 76.8582 185.262 76.8582 182.552C76.8582 179.842 74.6616 177.646 71.9518 177.646C69.2421 177.646 67.0454 179.842 67.0454 182.552C67.0454 185.262 69.2421 187.458 71.9518 187.458Z" fill="#3F3D56"/>
<path id="Vector_9" d="M29.084 153.404C25.6065 137.83 36.7226 122.093 53.9126 118.255C71.1025 114.417 87.8568 123.93 91.3343 139.504C94.8118 155.078 83.4193 160.821 66.2294 164.66C49.0394 168.498 32.5614 168.978 29.084 153.404Z" fill="#E6E6E6"/>
<path id="Vector_10" d="M41.8094 182.699C43.4093 179.326 35.9954 172.46 25.25 167.364C14.5046 162.267 4.4968 160.87 2.89689 164.244C1.29698 167.617 8.71083 174.483 19.4562 179.579C30.2016 184.676 40.2095 186.073 41.8094 182.699Z" fill="#2F2E41"/>
<path id="Vector_11" d="M49.707 208.992C49.707 213.207 60.5603 221.531 72.6035 221.531C84.6468 221.531 95.9387 209.664 95.9387 205.448C95.9387 201.233 84.6468 206.266 72.6035 206.266C60.5603 206.266 49.707 204.777 49.707 208.992Z" fill="white"/>
<path id="Vector_12" d="M221.034 255.058C227.055 255.058 231.937 253.227 231.937 250.969C231.937 248.711 227.055 246.88 221.034 246.88C215.012 246.88 210.13 248.711 210.13 250.969C210.13 253.227 215.012 255.058 221.034 255.058Z" fill="#2F2E41"/>
<path id="Vector_13" d="M194.866 254.512C200.888 254.512 205.769 252.682 205.769 250.424C205.769 248.166 200.888 246.335 194.866 246.335C188.844 246.335 183.963 248.166 183.963 250.424C183.963 252.682 188.844 254.512 194.866 254.512Z" fill="#2F2E41"/>
<path id="Vector_14" d="M182.16 190.688C184.024 187.453 177.184 180.016 166.88 174.076C156.577 168.137 146.713 165.944 144.848 169.178C142.984 172.413 149.825 179.85 160.128 185.79C170.431 191.729 180.295 193.922 182.16 190.688Z" fill="#2F2E41"/>
<path id="Vector_15" d="M212.311 236.522C236.096 236.522 255.378 217.24 255.378 193.455C255.378 169.67 236.096 150.388 212.311 150.388C188.526 150.388 169.244 169.67 169.244 193.455C169.244 217.24 188.526 236.522 212.311 236.522Z" fill="#2F2E41"/>
<path id="Vector_16" d="M231.937 227.255H218.853V250.696H231.937V227.255Z" fill="#2F2E41"/>
<path id="Vector_17" d="M205.769 227.255H192.686V250.696H205.769V227.255Z" fill="#2F2E41"/>
<path id="Vector_18" d="M202.221 197.271C210.35 197.271 216.94 190.681 216.94 182.552C216.94 174.423 210.35 167.833 202.221 167.833C194.091 167.833 187.501 174.423 187.501 182.552C187.501 190.681 194.091 197.271 202.221 197.271Z" fill="white"/>
<path id="Vector_19" d="M198.674 184.008C200.597 182.088 200.609 178.983 198.702 177.074C196.795 175.165 193.69 175.175 191.768 177.095C189.845 179.016 189.833 182.121 191.74 184.03C193.647 185.939 196.752 185.929 198.674 184.008Z" fill="#3F3D56"/>
<path id="Vector_20" d="M216.943 164.66C199.753 160.821 188.36 155.077 191.838 139.504C195.315 123.93 212.069 114.416 229.259 118.255C246.449 122.093 257.565 137.83 254.088 153.404C250.611 168.977 234.132 168.498 216.943 164.66Z" fill="#6C63FF"/>
<path id="Vector_21" d="M257.347 226.284C260.955 225.325 261.406 215.231 258.353 203.736C255.3 192.242 249.9 183.701 246.291 184.66C242.683 185.618 242.233 195.713 245.286 207.207C248.339 218.701 253.739 227.242 257.347 226.284Z" fill="#2F2E41"/>
<path id="Vector_22" d="M202.554 206.267C194.647 206.267 187.234 201.234 187.234 205.449C187.234 209.664 194.647 221.531 202.554 221.531C210.461 221.531 217.586 213.208 217.586 208.993C217.586 204.778 210.461 206.267 202.554 206.267Z" fill="white"/>
<path id="Vector_23" d="M146.897 122.048H143.072C139.646 122.044 136.361 120.681 133.938 118.258C131.516 115.836 130.153 112.551 130.149 109.125V105.914C130.149 97.9608 131.656 91.3016 134.628 86.1214C138.23 80.0958 142.432 74.4499 147.17 69.2699C150.316 66.1067 153.17 62.6665 155.698 58.9911C157.512 56.1357 158.448 52.8109 158.391 49.4286C158.391 41.4506 153.194 37.5721 142.501 37.5721C136.569 37.6392 130.675 38.5238 124.985 40.201C122.791 40.8274 120.482 40.9359 118.238 40.5181C115.995 40.1002 113.879 39.1674 112.057 37.7931C110.236 36.4187 108.758 34.6404 107.74 32.5979C106.723 30.5555 106.193 28.3047 106.193 26.0228V19.5228C106.18 16.7246 106.98 13.9829 108.494 11.63C110.009 9.27703 112.173 7.41391 114.725 6.26645C124.774 1.97802 135.611 -0.15386 146.535 0.00863773C157.98 0.00863773 168.311 1.931 177.242 5.72153C186.19 9.52085 193.259 14.8783 198.253 21.6454C203.233 28.3645 205.879 36.527 205.79 44.8895C205.79 53.8695 203.338 61.6908 198.503 68.1361C193.721 74.516 186.865 81.5003 178.127 88.8963C173.523 92.7253 169.16 96.8353 165.064 101.203C162.418 104.053 160.547 107.535 159.632 111.314C159.123 114.321 157.563 117.049 155.231 119.015C152.899 120.98 149.946 122.055 146.897 122.048Z" fill="#6C63FF"/>
<path id="Vector_24" d="M144.77 182.819H144.266C137.916 182.815 131.828 180.29 127.34 175.799C122.851 171.307 120.33 165.218 120.33 158.868C120.33 152.519 122.851 146.429 127.34 141.938C131.828 137.446 137.916 134.921 144.266 134.917H144.77C147.917 134.915 151.033 135.533 153.941 136.736C156.848 137.938 159.491 139.702 161.716 141.927C163.942 144.151 165.708 146.792 166.912 149.699C168.117 152.606 168.737 155.722 168.737 158.868C168.737 162.015 168.117 165.131 166.912 168.037C165.708 170.944 163.942 173.585 161.716 175.81C159.491 178.034 156.848 179.798 153.941 181.001C151.033 182.203 147.917 182.821 144.77 182.819Z" fill="#6C63FF"/>
</g>
</svg>
