<svg width="31" height="50" viewBox="0 0 31 50" fill="none" xmlns="http://www.w3.org/2000/svg">
<path d="M15.5 42.8709C6.93958 42.8709 0 35.9313 0 27.3709C0 18.8104 6.93958 11.8708 15.5 11.8708C24.0604 11.8708 31 18.8104 31 27.3709C31 35.9313 24.0604 42.8709 15.5 42.8709Z" fill="#2F2E41"/>
<path d="M17.8546 39.5354H22.5635V47.9721H17.8546V39.5354Z" fill="#2F2E41"/>
<path d="M8.43689 39.5354H13.1458V47.9721H8.43689V39.5354Z" fill="#2F2E41"/>
<path d="M18.6394 49.5417C16.4722 49.5417 14.7154 48.8829 14.7154 48.0702C14.7154 47.2575 16.4722 46.5986 18.6394 46.5986C20.8066 46.5986 22.5635 47.2575 22.5635 48.0702C22.5635 48.8829 20.8066 49.5417 18.6394 49.5417Z" fill="#2F2E41"/>
<path d="M9.22169 49.3454C7.0545 49.3454 5.29764 48.6866 5.29764 47.8739C5.29764 47.0612 7.0545 46.4023 9.22169 46.4023C11.3889 46.4023 13.1458 47.0612 13.1458 47.8739C13.1458 48.6866 11.3889 49.3454 9.22169 49.3454Z" fill="#2F2E41"/>
<path d="M15.1078 28.7441C12.1821 28.7441 9.81033 26.3724 9.81033 23.4466C9.81033 20.5209 12.1821 18.1492 15.1078 18.1492C18.0335 18.1492 20.4053 20.5209 20.4053 23.4466C20.4053 26.3724 18.0335 28.7441 15.1078 28.7441Z" fill="white"/>
<path d="M12.0561 25.779C11.3692 25.0924 11.3729 23.9751 12.0644 23.2833C12.7558 22.5916 13.8731 22.5874 14.56 23.2739C15.2469 23.9605 15.2432 25.0779 14.5518 25.7696C13.8603 26.4613 12.743 26.4655 12.0561 25.779Z" fill="#3F3D56"/>
<path d="M30.5355 12.9563C31.7871 7.35123 27.7863 1.68758 21.5996 0.306143C15.4129 -1.0753 9.38305 2.34863 8.1315 7.95366C6.87995 13.5587 10.9801 15.6259 17.1668 17.0074C23.3535 18.3888 29.2839 18.5613 30.5355 12.9563Z" fill="#E6E6E6"/>
</svg>
