<svg width="42" height="106" viewBox="0 0 42 106" fill="none" xmlns="http://www.w3.org/2000/svg">
<path d="M35.7057 114.464H36.562L34.8493 0H33.993L34.0271 2.28357H14.834L14.8681 0H14.0118L12.2991 114.464H13.1554L13.2665 107.042H35.5946L35.7057 114.464ZM34.4713 31.9699H14.3898L14.599 17.9831H34.2621L34.4713 31.9699ZM34.4841 32.8263L34.6934 46.8131H14.1677L14.3769 32.8263H34.4841ZM34.7062 47.6695L34.9155 61.6563H13.9456L14.1549 47.6695H34.7062ZM34.9283 62.5126L35.1376 76.4995H13.7235L13.9328 62.5126H34.9283ZM35.1504 77.3558L35.3597 91.3427H13.5014L13.7106 77.3558H35.1504ZM34.04 3.13991L34.2492 17.1268H14.6119L14.8211 3.13991H34.04ZM13.2793 106.186L13.4886 92.199H35.3725L35.5818 106.186H13.2793Z" fill="#3F3D56"/>
<path d="M20.1884 39.4252C27.9003 39.4252 34.152 33.1735 34.152 25.4616C34.152 17.7498 27.9003 11.498 20.1884 11.498C12.4766 11.498 6.22485 17.7498 6.22485 25.4616C6.22485 33.1735 12.4766 39.4252 20.1884 39.4252Z" fill="#2F2E41"/>
<path d="M28.402 35.1115L24.2278 35.8672L25.5817 43.3461L29.7559 42.5904L28.402 35.1115Z" fill="#2F2E41"/>
<path d="M20.0534 36.6228L15.8792 37.3784L17.233 44.8573L21.4073 44.1016L20.0534 36.6228Z" fill="#2F2E41"/>
<path d="M19.449 46.4313C20.9388 45.1695 21.763 43.6937 21.2899 43.135C20.8167 42.5763 19.2253 43.1463 17.7355 44.408C16.2456 45.6698 15.4214 47.1456 15.8946 47.7043C16.3677 48.263 17.9591 47.693 19.449 46.4313Z" fill="#2F2E41"/>
<path d="M27.6235 44.9515C29.1134 43.6897 29.9376 42.214 29.4644 41.6553C28.9913 41.0966 27.3999 41.6665 25.9101 42.9283C24.4202 44.19 23.596 45.6658 24.0691 46.2245C24.5423 46.7832 26.1337 46.2133 27.6235 44.9515Z" fill="#2F2E41"/>
<path d="M19.2108 26.8184C21.8465 26.8184 23.9832 24.6817 23.9832 22.046C23.9832 19.4103 21.8465 17.2737 19.2108 17.2737C16.5751 17.2737 14.4385 19.4103 14.4385 22.046C14.4385 24.6817 16.5751 26.8184 19.2108 26.8184Z" fill="white"/>
<path d="M17.2495 21.926C18.1281 21.926 18.8403 21.2137 18.8403 20.3352C18.8403 19.4566 18.1281 18.7444 17.2495 18.7444C16.3709 18.7444 15.6587 19.4566 15.6587 20.3352C15.6587 21.2137 16.3709 21.926 17.2495 21.926Z" fill="#3F3D56"/>
<path d="M31.2036 10.2707C31.4136 5.10117 26.9582 0.72255 21.2523 0.490779C15.5463 0.259009 10.7504 4.26183 10.5404 9.43136C10.3304 14.6009 14.2968 15.7754 20.0028 16.0072C25.7088 16.239 30.9936 15.4402 31.2036 10.2707Z" fill="#6C63FF"/>
<path d="M14.1003 24.4775C14.3707 23.2976 11.5432 21.6427 7.78469 20.7812C4.02623 19.9197 0.760147 20.1778 0.489696 21.3577C0.219244 22.5376 3.04684 24.1925 6.8053 25.054C10.5638 25.9155 13.8298 25.6574 14.1003 24.4775Z" fill="#2F2E41"/>
<path d="M41.5102 29.0356C41.7807 27.8557 38.9531 26.2008 35.1946 25.3393C31.4361 24.4778 28.1701 24.736 27.8996 25.9159C27.6292 27.0957 30.4567 28.7506 34.2152 29.6121C37.9737 30.4736 41.2397 30.2155 41.5102 29.0356Z" fill="#2F2E41"/>
<path d="M24.0236 30.9645C24.0988 31.3758 24.0923 31.7978 24.0043 32.2064C23.9164 32.6151 23.7487 33.0025 23.511 33.3463C23.2733 33.6902 22.9701 33.9838 22.6188 34.2105C22.2675 34.4371 21.8751 34.5923 21.4638 34.6671C21.0525 34.742 20.6305 34.7351 20.2219 34.6468C19.8133 34.5585 19.4261 34.3905 19.0824 34.1525C18.7388 33.9145 18.4454 33.6111 18.2191 33.2596C17.9927 32.9081 17.8379 32.5155 17.7633 32.1042L17.7622 32.098C17.4492 30.369 18.7861 29.7572 20.5151 29.4442C22.2441 29.1312 23.7106 29.2355 24.0236 30.9645Z" fill="white"/>
</svg>
