<svg width="650" height="387" viewBox="0 0 650 387" fill="none" xmlns="http://www.w3.org/2000/svg">
<g id="Group 8">
<g id="duVienasAntKito">
<path id="Vector" d="M103.111 324.33C131.768 324.33 155 301.099 155 272.441C155 243.783 131.768 220.552 103.111 220.552C74.453 220.552 51.2214 243.783 51.2214 272.441C51.2214 301.099 74.453 324.33 103.111 324.33Z" fill="#2F2E41"/>
<path id="Vector_2" d="M95.2289 313.164H79.4651V341.408H95.2289V313.164Z" fill="#2F2E41"/>
<path id="Vector_3" d="M126.757 313.164H110.993V341.408H126.757V313.164Z" fill="#2F2E41"/>
<path id="Vector_4" d="M92.6011 346.662C99.8562 346.662 105.738 344.457 105.738 341.736C105.738 339.016 99.8562 336.81 92.6011 336.81C85.346 336.81 79.4646 339.016 79.4646 341.736C79.4646 344.457 85.346 346.662 92.6011 346.662Z" fill="#2F2E41"/>
<path id="Vector_5" d="M124.129 346.006C131.385 346.006 137.266 343.8 137.266 341.08C137.266 338.359 131.385 336.153 124.129 336.153C116.874 336.153 110.993 338.359 110.993 341.08C110.993 343.8 116.874 346.006 124.129 346.006Z" fill="#2F2E41"/>
<path id="Vector_6" d="M104.424 277.039C114.219 277.039 122.159 269.099 122.159 259.305C122.159 249.51 114.219 241.57 104.424 241.57C94.6301 241.57 86.6902 249.51 86.6902 259.305C86.6902 269.099 94.6301 277.039 104.424 277.039Z" fill="white"/>
<path id="Vector_7" d="M104.424 265.216C107.689 265.216 110.335 262.569 110.335 259.304C110.335 256.04 107.689 253.393 104.424 253.393C101.159 253.393 98.5125 256.04 98.5125 259.304C98.5125 262.569 101.159 265.216 104.424 265.216Z" fill="#3F3D56"/>
<path id="Vector_8" d="M52.7766 224.186C48.5868 205.422 61.98 186.462 82.6911 181.837C103.402 177.212 123.588 188.675 127.778 207.439C131.968 226.202 118.242 233.123 97.5309 237.748C76.8198 242.372 56.9665 242.95 52.7766 224.186Z" fill="#E6E6E6"/>
<path id="Vector_9" d="M140.945 87.0661C146.061 73.6817 146.802 61.5295 142.6 59.9235C138.398 58.3175 130.845 67.8658 125.729 81.2503C120.613 94.6347 119.873 106.787 124.074 108.393C128.276 109.999 135.829 100.451 140.945 87.0661Z" fill="#2F2E41"/>
<path id="Vector_10" d="M136.595 131.654C141.186 103.366 121.976 76.7131 93.6879 72.1226C65.4003 67.5322 38.7474 86.7425 34.157 115.03C29.5665 143.318 48.7768 169.971 77.0644 174.561C105.352 179.152 132.005 159.941 136.595 131.654Z" fill="#2F2E41"/>
<path id="Vector_11" d="M77.4948 164.065H61.731V192.308H77.4948V164.065Z" fill="#2F2E41"/>
<path id="Vector_12" d="M109.022 164.065H93.2585V192.308H109.022V164.065Z" fill="#2F2E41"/>
<path id="Vector_13" d="M74.8675 197.563C82.1226 197.563 88.004 195.357 88.004 192.637C88.004 189.916 82.1226 187.711 74.8675 187.711C67.6124 187.711 61.731 189.916 61.731 192.637C61.731 195.357 67.6124 197.563 74.8675 197.563Z" fill="#2F2E41"/>
<path id="Vector_14" d="M106.395 196.906C113.65 196.906 119.532 194.701 119.532 191.98C119.532 189.26 113.65 187.054 106.395 187.054C99.14 187.054 93.2585 189.26 93.2585 191.98C93.2585 194.701 99.14 196.906 106.395 196.906Z" fill="#2F2E41"/>
<path id="Vector_15" d="M86.6901 127.94C96.4845 127.94 104.424 120 104.424 110.205C104.424 100.411 96.4845 92.471 86.6901 92.471C76.8957 92.471 68.9558 100.411 68.9558 110.205C68.9558 120 76.8957 127.94 86.6901 127.94Z" fill="white"/>
<path id="Vector_16" d="M86.6898 116.117C89.9546 116.117 92.6012 113.47 92.6012 110.205C92.6012 106.941 89.9546 104.294 86.6898 104.294C83.425 104.294 80.7783 106.941 80.7783 110.205C80.7783 113.47 83.425 116.117 86.6898 116.117Z" fill="#3F3D56"/>
<path id="Vector_17" d="M35.0423 75.0862C30.8525 56.3223 44.2456 37.3622 64.9568 32.7375C85.6679 28.1129 105.854 39.5751 110.044 58.339C114.234 77.1029 100.508 84.0234 79.7966 88.6479C59.0855 93.2725 39.2321 93.8502 35.0423 75.0862Z" fill="#6C63FF"/>
<path id="Vector_18" d="M50.3737 110.383C52.3013 106.319 43.3688 98.0464 30.4223 91.9061C17.4758 85.7657 5.41792 84.0828 3.49029 88.1471C1.56265 92.2114 10.4952 100.484 23.4417 106.624C36.3882 112.764 48.446 114.447 50.3737 110.383Z" fill="#2F2E41"/>
<path id="Vector_19" d="M59.8884 142.061C59.8884 147.14 72.9649 157.168 87.4751 157.168C101.985 157.168 115.59 142.871 115.59 137.792C115.59 132.714 101.985 138.777 87.4751 138.777C72.965 138.777 59.8884 136.983 59.8884 142.061Z" fill="white"/>
</g>
<g id="ciuvas ant kopieciu">
<path id="Vector_20" d="M628.719 386.998H631.615L625.824 0H622.929L623.044 7.72067H558.153L558.268 0H555.373L549.583 386.998H552.478L552.853 361.906H628.344L628.719 386.998ZM624.546 108.089H556.651L557.359 60.8002H623.838L624.546 108.089ZM624.589 110.984L625.297 158.273H555.9L556.608 110.984H624.589ZM625.34 161.169L626.048 208.458H555.149L555.857 161.169H625.34ZM626.091 211.353L626.799 258.642H554.398L555.106 211.353H626.091ZM626.842 261.537L627.55 308.826H553.647L554.355 261.537H626.842ZM623.088 10.6159L623.795 57.9049H557.402L558.109 10.6159H623.088ZM552.897 359.01L553.604 311.721H627.593L628.3 359.01H552.897Z" fill="#3F3D56"/>
<path id="Vector_21" d="M576.256 133.295C602.33 133.295 623.467 112.158 623.467 86.0846C623.467 60.0111 602.33 38.8743 576.256 38.8743C550.183 38.8743 529.046 60.0111 529.046 86.0846C529.046 112.158 550.183 133.295 576.256 133.295Z" fill="#2F2E41"/>
<path id="Vector_22" d="M604.026 118.711L589.913 121.266L594.491 146.551L608.604 143.996L604.026 118.711Z" fill="#2F2E41"/>
<path id="Vector_23" d="M575.8 123.82L561.687 126.375L566.264 151.661L580.377 149.106L575.8 123.82Z" fill="#2F2E41"/>
<path id="Vector_24" d="M573.756 156.982C578.794 152.716 581.58 147.727 579.98 145.838C578.381 143.949 573 145.876 567.963 150.142C562.926 154.408 560.139 159.397 561.739 161.286C563.339 163.175 568.719 161.248 573.756 156.982Z" fill="#2F2E41"/>
<path id="Vector_25" d="M601.394 151.979C606.432 147.713 609.218 142.724 607.618 140.835C606.019 138.946 600.638 140.873 595.601 145.139C590.564 149.405 587.777 154.394 589.377 156.283C590.977 158.172 596.357 156.245 601.394 151.979Z" fill="#2F2E41"/>
<path id="Vector_26" d="M572.951 90.6718C581.863 90.6718 589.086 83.4479 589.086 74.5367C589.086 65.6255 581.863 58.4015 572.951 58.4015C564.04 58.4015 556.816 65.6255 556.816 74.5367C556.816 83.4479 564.04 90.6718 572.951 90.6718Z" fill="white"/>
<path id="Vector_27" d="M566.32 74.1311C569.29 74.1311 571.698 71.7231 571.698 68.7527C571.698 65.7822 569.29 63.3743 566.32 63.3743C563.349 63.3743 560.941 65.7822 560.941 68.7527C560.941 71.7231 563.349 74.1311 566.32 74.1311Z" fill="#3F3D56"/>
<path id="Vector_28" d="M613.499 34.7247C614.208 17.2467 599.145 2.44274 579.853 1.65914C560.562 0.87553 544.347 14.4089 543.637 31.8869C542.927 49.3649 556.337 53.3359 575.629 54.1196C594.921 54.9033 612.789 52.2026 613.499 34.7247Z" fill="#6C63FF"/>
<path id="Vector_29" d="M555.673 82.7576C556.587 78.7685 547.027 73.1734 534.32 70.2607C521.613 67.348 510.57 68.2206 509.656 72.2098C508.741 76.199 518.301 81.7941 531.008 84.7068C543.716 87.6195 554.758 86.7468 555.673 82.7576Z" fill="#2F2E41"/>
<path id="Vector_30" d="M648.344 98.1683C649.259 94.1792 639.699 88.5841 626.992 85.6714C614.284 82.7587 603.242 83.6313 602.328 87.6205C601.413 91.6097 610.973 97.2048 623.68 100.118C636.388 103.03 647.43 102.158 648.344 98.1683Z" fill="#2F2E41"/>
<path id="Vector_31" d="M589.223 104.69C589.477 106.08 589.455 107.507 589.158 108.889C588.86 110.271 588.293 111.58 587.49 112.743C586.686 113.905 585.661 114.898 584.473 115.664C583.286 116.431 581.959 116.955 580.568 117.208C579.178 117.461 577.751 117.438 576.369 117.14C574.988 116.841 573.679 116.273 572.517 115.468C571.355 114.664 570.363 113.638 569.598 112.449C568.833 111.261 568.309 109.934 568.057 108.543L568.053 108.522C566.995 102.676 571.515 100.608 577.361 99.5496C583.207 98.4913 588.165 98.8442 589.223 104.69Z" fill="white"/>
</g>
</g>
</svg>
